<svg width="23" height="23" viewBox="0 0 23 23" fill="none" xmlns="http://www.w3.org/2000/svg">
<path d="M19.7325 8.89245H14.3725V3.53251C14.3725 2.82174 14.0902 2.14008 13.5876 1.63748C13.085 1.13489 12.4033 0.852539 11.6925 0.852539C10.9818 0.852539 10.3001 1.13489 9.79752 1.63748C9.29492 2.14008 9.01257 2.82174 9.01257 3.53251L9.10771 8.89245H3.65263C2.94186 8.89245 2.26019 9.17481 1.7576 9.6774C1.25501 10.18 0.972656 10.8617 0.972656 11.5724C0.972656 12.2832 1.25501 12.9649 1.7576 13.4675C2.26019 13.97 2.94186 14.2524 3.65263 14.2524L9.10771 14.1573L9.01257 19.6123C9.01257 20.3231 9.29492 21.0048 9.79752 21.5074C10.3001 22.01 10.9818 22.2923 11.6925 22.2923C12.4033 22.2923 13.085 22.01 13.5876 21.5074C14.0902 21.0048 14.3725 20.3231 14.3725 19.6123V14.1573L19.7325 14.2524C20.4432 14.2524 21.1249 13.97 21.6275 13.4675C22.1301 12.9649 22.4124 12.2832 22.4124 11.5724C22.4124 10.8617 22.1301 10.18 21.6275 9.6774C21.1249 9.17481 20.4432 8.89245 19.7325 8.89245Z" fill="white"/>
</svg>
