<svg width="16" height="16" viewBox="0 0 16 16" fill="none" xmlns="http://www.w3.org/2000/svg">
<path d="M7.75 0.274658C8.48759 0.274658 9.08621 0.873279 9.08621 1.61087V6.68845H14.1638C14.5182 6.68845 14.858 6.82923 15.1086 7.07982C15.3592 7.3304 15.5 7.67027 15.5 8.02466C15.5 8.37904 15.3592 8.71891 15.1086 8.9695C14.858 9.22009 14.5182 9.36087 14.1638 9.36087H9.08621V14.4385C9.08621 14.7928 8.94543 15.1327 8.69484 15.3833C8.44425 15.6339 8.10438 15.7747 7.75 15.7747C7.39562 15.7747 7.05575 15.6339 6.80516 15.3833C6.55457 15.1327 6.41379 14.7928 6.41379 14.4385V9.36087H1.33621C0.981823 9.36087 0.641953 9.22009 0.391366 8.9695C0.140779 8.71891 0 8.37904 0 8.02466C0 7.67027 0.140779 7.3304 0.391366 7.07982C0.641953 6.82923 0.981823 6.68845 1.33621 6.68845H6.41379V1.61087C6.41379 0.873279 7.01241 0.274658 7.75 0.274658Z" fill="#FF3E68"/>
</svg>
