<svg width="16" height="17" viewBox="0 0 16 17" fill="none" xmlns="http://www.w3.org/2000/svg">
<path d="M7.75 0.803711C8.48759 0.803711 9.08621 1.40233 9.08621 2.13992V7.2175H14.1638C14.5182 7.2175 14.858 7.35828 15.1086 7.60887C15.3592 7.85946 15.5 8.19933 15.5 8.55371C15.5 8.9081 15.3592 9.24796 15.1086 9.49855C14.858 9.74914 14.5182 9.88992 14.1638 9.88992H9.08621V14.9675C9.08621 15.3219 8.94543 15.6618 8.69484 15.9123C8.44425 16.1629 8.10438 16.3037 7.75 16.3037C7.39562 16.3037 7.05575 16.1629 6.80516 15.9123C6.55457 15.6618 6.41379 15.3219 6.41379 14.9675V9.88992H1.33621C0.981823 9.88992 0.641953 9.74914 0.391366 9.49855C0.140779 9.24796 0 8.9081 0 8.55371C0 8.19933 0.140779 7.85946 0.391366 7.60887C0.641953 7.35828 0.981823 7.2175 1.33621 7.2175H6.41379V2.13992C6.41379 1.40233 7.01241 0.803711 7.75 0.803711Z" fill="black" fill-opacity="0.34"/>
</svg>
