<svg width="26" height="26" viewBox="0 0 26 26" fill="none" xmlns="http://www.w3.org/2000/svg">
<rect width="26" height="26" rx="13" fill="#FF3E68"/>
<path d="M13.0001 5.80347C13.685 5.80347 14.2409 6.35933 14.2409 7.04423V11.7591H18.9558C19.2849 11.7591 19.6005 11.8899 19.8332 12.1225C20.0658 12.3552 20.1966 12.6708 20.1966 12.9999C20.1966 13.329 20.0658 13.6446 19.8332 13.8772C19.6005 14.1099 19.2849 14.2407 18.9558 14.2407H14.2409V18.9556C14.2409 19.2846 14.1102 19.6002 13.8775 19.8329C13.6448 20.0656 13.3292 20.1963 13.0001 20.1963C12.6711 20.1963 12.3555 20.0656 12.1228 19.8329C11.8901 19.6002 11.7594 19.2846 11.7594 18.9556V14.2407H7.04447C6.7154 14.2407 6.39981 14.1099 6.16712 13.8772C5.93443 13.6446 5.80371 13.329 5.80371 12.9999C5.80371 12.6708 5.93443 12.3552 6.16712 12.1225C6.39981 11.8899 6.7154 11.7591 7.04447 11.7591H11.7594V7.04423C11.7594 6.35933 12.3152 5.80347 13.0001 5.80347Z" fill="white"/>
</svg>
