<svg width="20" height="23" viewBox="0 0 20 23" fill="none" xmlns="http://www.w3.org/2000/svg">
<path d="M16.6385 11.3835V9.06052C16.6394 7.4905 16.1107 5.96608 15.1378 4.73378C14.165 3.50147 12.805 2.63333 11.2777 2.26972C11.2891 2.22464 11.2982 2.17898 11.3048 2.13292V1.29444C11.3048 0.95217 11.1688 0.623918 10.9268 0.381896C10.6847 0.139873 10.3565 0.00390625 10.0142 0.00390625C9.67195 0.00390625 9.34369 0.139873 9.10167 0.381896C8.85965 0.623918 8.72368 0.95217 8.72368 1.29444V2.13292C8.73024 2.17898 8.73929 2.22464 8.75078 2.26972C7.22345 2.63333 5.86341 3.50147 4.89059 4.73378C3.91776 5.96608 3.38903 7.4905 3.3899 9.06052V11.3835C3.3899 14.4627 0.980469 15.2319 0.980469 16.7715C0.980469 17.5368 0.980469 18.3111 1.67478 18.3111H18.3537C19.048 18.3111 19.048 17.5368 19.048 16.7715C19.048 15.2319 16.6385 14.4627 16.6385 11.3835ZM5.91419 19.6016C6.25654 20.4056 6.82774 21.0913 7.55673 21.5732C8.28573 22.0551 9.14033 22.3121 10.0142 22.3121C10.8881 22.3121 11.7427 22.0551 12.4717 21.5732C13.2007 21.0913 13.7719 20.4056 14.1142 19.6016H5.91419Z" fill="black" fill-opacity="0.26"/>
</svg>
