<svg width="16" height="21" viewBox="0 0 16 21" fill="none" xmlns="http://www.w3.org/2000/svg">
<path d="M13.8078 10.6988V8.65035C13.8086 7.26586 13.3423 5.92158 12.4844 4.8349C11.6266 3.74821 10.4272 2.98265 9.08039 2.66201C9.09052 2.62226 9.0985 2.58199 9.10429 2.54138V1.80198C9.10429 1.50015 8.98439 1.21069 8.77096 0.997264C8.55754 0.783841 8.26808 0.66394 7.96625 0.66394C7.66443 0.66394 7.37496 0.783841 7.16154 0.997264C6.94812 1.21069 6.82822 1.50015 6.82822 1.80198V2.54138C6.834 2.58199 6.84198 2.62226 6.85212 2.66201C5.50526 2.98265 4.30593 3.74821 3.44807 4.8349C2.5902 5.92158 2.12395 7.26586 2.12471 8.65035V10.6988C2.12471 13.4142 0 14.0924 0 15.4501C0 16.125 0 16.8078 0.612263 16.8078H15.3202C15.9325 16.8078 15.9325 16.125 15.9325 15.4501C15.9325 14.0924 13.8078 13.4142 13.8078 10.6988ZM4.35071 17.9458C4.65261 18.6549 5.15631 19.2595 5.79916 19.6845C6.44201 20.1094 7.19563 20.336 7.96625 20.336C8.73688 20.336 9.49049 20.1094 10.1333 19.6845C10.7762 19.2595 11.2799 18.6549 11.5818 17.9458H4.35071Z" fill="#FF3E68"/>
</svg>
