<svg width="17" height="16" viewBox="0 0 17 16" fill="none" xmlns="http://www.w3.org/2000/svg">
<path d="M7.67382 11.825C7.67382 10.9255 7.43873 10.1701 6.96853 9.55883C6.63531 9.1377 6.18318 8.86103 5.61213 8.72883C5.04994 8.598 4.51842 8.5888 4.038 8.70021C3.87446 7.72916 4.14022 6.70087 4.81485 5.61125C5.49083 4.52231 6.36239 3.70356 7.42953 3.155L5.81349 0.82959C4.99577 1.23436 4.21893 1.74749 3.50342 2.36794C2.77768 2.98839 2.13372 3.70186 1.56131 4.50834C0.988905 5.31482 0.559599 6.22557 0.283616 7.25795C0.00763298 8.29033 -0.0690288 9.34315 0.0628297 10.4266C0.234552 11.8577 0.696568 13.0025 1.44888 13.8509C2.2005 14.7102 3.1368 15.1398 4.25777 15.1398C5.24415 15.1398 6.0629 14.8434 6.71095 14.2424C7.35218 13.6536 7.67246 12.8468 7.67178 11.8219L7.67382 11.825ZM17 11.825C17 10.9255 16.7649 10.1701 16.2947 9.55883C15.9608 9.12952 15.5087 8.85115 14.9383 8.72372C14.3659 8.59766 13.8412 8.59016 13.3642 8.70123C13.2006 7.74041 13.4562 6.70802 14.1328 5.61431C14.8075 4.53083 15.6783 3.7131 16.7455 3.16113L15.1335 0.82959C14.3151 1.23436 13.5451 1.74715 12.8235 2.36794C12.0912 2.99766 11.4408 3.71674 10.8875 4.50834C10.3192 5.31585 9.896 6.22557 9.62001 7.25795C9.33967 8.28953 9.26431 9.36606 9.3982 10.4266C9.56788 11.8577 10.0279 13.0025 10.7781 13.8509C11.5277 14.704 12.4623 15.1306 13.5819 15.1306C14.57 15.132 15.3884 14.8332 16.0371 14.2342C16.6784 13.6454 16.9993 12.8386 17 11.8137V11.825Z" fill="#FF3E68"/>
</svg>
