<svg width="18" height="18" viewBox="0 0 18 18" fill="none" xmlns="http://www.w3.org/2000/svg">
<path d="M7.33268 2.74935V3.99935H10.666V2.74935C10.666 2.63884 10.6221 2.53286 10.544 2.45472C10.4658 2.37658 10.3599 2.33268 10.2493 2.33268H7.74935C7.63884 2.33268 7.53286 2.37658 7.45472 2.45472C7.37658 2.53286 7.33268 2.63884 7.33268 2.74935ZM5.66602 3.99935V2.74935C5.66602 1.59935 6.59935 0.666016 7.74935 0.666016H10.2493C11.3993 0.666016 12.3327 1.59935 12.3327 2.74935V3.99935H13.9993C14.8834 3.99935 15.7312 4.35054 16.3564 4.97566C16.9815 5.60078 17.3327 6.44863 17.3327 7.33268V8.16602C17.3327 8.82906 17.0693 9.46494 16.6004 9.93378C16.1316 10.4026 15.4957 10.666 14.8327 10.666H10.666V9.83268C10.666 9.61167 10.5782 9.39971 10.4219 9.24343C10.2657 9.08715 10.0537 8.99935 9.83268 8.99935H8.16602C7.945 8.99935 7.73304 9.08715 7.57676 9.24343C7.42048 9.39971 7.33268 9.61167 7.33268 9.83268V10.666H3.16602C2.50297 10.666 1.86709 10.4026 1.39825 9.93378C0.929408 9.46494 0.666016 8.82906 0.666016 8.16602V7.33268C0.666016 6.44863 1.01721 5.60078 1.64233 4.97566C2.26745 4.35054 3.11529 3.99935 3.99935 3.99935H5.66602ZM0.666016 11.4993V13.9993C0.666016 14.8834 1.01721 15.7312 1.64233 16.3564C2.26745 16.9815 3.11529 17.3327 3.99935 17.3327H13.9993C14.8834 17.3327 15.7312 16.9815 16.3564 16.3564C16.9815 15.7312 17.3327 14.8834 17.3327 13.9993V11.4993C16.636 12.0227 15.771 12.3327 14.8327 12.3327H10.666V13.166C10.666 13.387 10.5782 13.599 10.4219 13.7553C10.2657 13.9116 10.0537 13.9993 9.83268 13.9993H8.16602C7.945 13.9993 7.73304 13.9116 7.57676 13.7553C7.42048 13.599 7.33268 13.387 7.33268 13.166V12.3327H3.16602C2.26447 12.3327 1.38725 12.0403 0.666016 11.4993Z" fill="#666666"/>
</svg>
