<svg width="18" height="18" viewBox="0 0 18 18" fill="none" xmlns="http://www.w3.org/2000/svg">
<path d="M7.33366 2.74935V3.99935H10.667V2.74935C10.667 2.63884 10.6231 2.53286 10.545 2.45472C10.4668 2.37658 10.3608 2.33268 10.2503 2.33268H7.75033C7.63982 2.33268 7.53384 2.37658 7.4557 2.45472C7.37756 2.53286 7.33366 2.63884 7.33366 2.74935ZM5.66699 3.99935V2.74935C5.66699 1.59935 6.60033 0.666016 7.75033 0.666016H10.2503C11.4003 0.666016 12.3337 1.59935 12.3337 2.74935V3.99935H14.0003C14.8844 3.99935 15.7322 4.35054 16.3573 4.97566C16.9825 5.60078 17.3337 6.44863 17.3337 7.33268V8.16602C17.3337 8.82906 17.0703 9.46494 16.6014 9.93378C16.1326 10.4026 15.4967 10.666 14.8337 10.666H10.667V9.83268C10.667 9.61167 10.5792 9.39971 10.4229 9.24343C10.2666 9.08715 10.0547 8.99935 9.83366 8.99935H8.16699C7.94598 8.99935 7.73402 9.08715 7.57774 9.24343C7.42146 9.39971 7.33366 9.61167 7.33366 9.83268V10.666H3.16699C2.50395 10.666 1.86807 10.4026 1.39923 9.93378C0.930384 9.46494 0.666992 8.82906 0.666992 8.16602V7.33268C0.666992 6.44863 1.01818 5.60078 1.6433 4.97566C2.26842 4.35054 3.11627 3.99935 4.00033 3.99935H5.66699ZM0.666992 11.4993V13.9993C0.666992 14.8834 1.01818 15.7312 1.6433 16.3564C2.26842 16.9815 3.11627 17.3327 4.00033 17.3327H14.0003C14.8844 17.3327 15.7322 16.9815 16.3573 16.3564C16.9825 15.7312 17.3337 14.8834 17.3337 13.9993V11.4993C16.637 12.0227 15.772 12.3327 14.8337 12.3327H10.667V13.166C10.667 13.387 10.5792 13.599 10.4229 13.7553C10.2666 13.9116 10.0547 13.9993 9.83366 13.9993H8.16699C7.94598 13.9993 7.73402 13.9116 7.57774 13.7553C7.42146 13.599 7.33366 13.387 7.33366 13.166V12.3327H3.16699C2.26545 12.3327 1.38823 12.0403 0.666992 11.4993Z" fill="#666666"/>
</svg>
