<svg width="18" height="18" viewBox="0 0 18 18" fill="none" xmlns="http://www.w3.org/2000/svg">
<path d="M0 4.20225C0 3.69076 0.203188 3.20022 0.564865 2.83855C0.926543 2.47687 1.41708 2.27368 1.92857 2.27368H16.0714C16.5829 2.27368 17.0735 2.47687 17.4351 2.83855C17.7968 3.20022 18 3.69076 18 4.20225V6.13082H0V4.20225Z" fill="#8B8B8B"/>
<path fill-rule="evenodd" clip-rule="evenodd" d="M14.1429 0.345215C14.3134 0.345215 14.4769 0.412944 14.5974 0.533503C14.718 0.654063 14.7857 0.817576 14.7857 0.988072V3.5595C14.7857 3.73 14.718 3.89351 14.5974 4.01407C14.4769 4.13463 14.3134 4.20236 14.1429 4.20236C13.9724 4.20236 13.8088 4.13463 13.6883 4.01407C13.5677 3.89351 13.5 3.73 13.5 3.5595V0.988072C13.5 0.817576 13.5677 0.654063 13.6883 0.533503C13.8088 0.412944 13.9724 0.345215 14.1429 0.345215ZM3.85714 0.345215C4.02764 0.345215 4.19115 0.412944 4.31171 0.533503C4.43227 0.654063 4.5 0.817576 4.5 0.988072V3.5595C4.5 3.73 4.43227 3.89351 4.31171 4.01407C4.19115 4.13463 4.02764 4.20236 3.85714 4.20236C3.68665 4.20236 3.52313 4.13463 3.40257 4.01407C3.28202 3.89351 3.21429 3.73 3.21429 3.5595V0.988072C3.21429 0.817576 3.28202 0.654063 3.40257 0.533503C3.52313 0.412944 3.68665 0.345215 3.85714 0.345215ZM0 7.41664H18V15.7738C18 16.2853 17.7968 16.7758 17.4351 17.1375C17.0735 17.4992 16.5829 17.7024 16.0714 17.7024H1.92857C1.41708 17.7024 0.926543 17.4992 0.564865 17.1375C0.203188 16.7758 0 16.2853 0 15.7738V7.41664ZM13.5 9.98807C13.5 9.81758 13.5677 9.65406 13.6883 9.5335C13.8088 9.41294 13.9724 9.34521 14.1429 9.34521H15.4286C15.5991 9.34521 15.7626 9.41294 15.8831 9.5335C16.0037 9.65406 16.0714 9.81758 16.0714 9.98807C16.0714 10.1586 16.0037 10.3221 15.8831 10.4426C15.7626 10.5632 15.5991 10.6309 15.4286 10.6309H14.1429C13.9724 10.6309 13.8088 10.5632 13.6883 10.4426C13.5677 10.3221 13.5 10.1586 13.5 9.98807ZM10.2857 9.34521C10.1152 9.34521 9.9517 9.41294 9.83115 9.5335C9.71059 9.65406 9.64286 9.81758 9.64286 9.98807C9.64286 10.1586 9.71059 10.3221 9.83115 10.4426C9.9517 10.5632 10.1152 10.6309 10.2857 10.6309H11.5714C11.7419 10.6309 11.9054 10.5632 12.026 10.4426C12.1466 10.3221 12.2143 10.1586 12.2143 9.98807C12.2143 9.81758 12.1466 9.65406 12.026 9.5335C11.9054 9.41294 11.7419 9.34521 11.5714 9.34521H10.2857ZM5.78571 9.98807C5.78571 9.81758 5.85344 9.65406 5.974 9.5335C6.09456 9.41294 6.25808 9.34521 6.42857 9.34521H7.71429C7.88478 9.34521 8.0483 9.41294 8.16885 9.5335C8.28941 9.65406 8.35714 9.81758 8.35714 9.98807C8.35714 10.1586 8.28941 10.3221 8.16885 10.4426C8.0483 10.5632 7.88478 10.6309 7.71429 10.6309H6.42857C6.25808 10.6309 6.09456 10.5632 5.974 10.4426C5.85344 10.3221 5.78571 10.1586 5.78571 9.98807ZM2.57143 11.9166C2.40093 11.9166 2.23742 11.9844 2.11686 12.1049C1.9963 12.2255 1.92857 12.389 1.92857 12.5595C1.92857 12.73 1.9963 12.8935 2.11686 13.0141C2.23742 13.1346 2.40093 13.2024 2.57143 13.2024H3.85714C4.02764 13.2024 4.19115 13.1346 4.31171 13.0141C4.43227 12.8935 4.5 12.73 4.5 12.5595C4.5 12.389 4.43227 12.2255 4.31171 12.1049C4.19115 11.9844 4.02764 11.9166 3.85714 11.9166H2.57143ZM13.5 12.5595C13.5 12.389 13.5677 12.2255 13.6883 12.1049C13.8088 11.9844 13.9724 11.9166 14.1429 11.9166H15.4286C15.5991 11.9166 15.7626 11.9844 15.8831 12.1049C16.0037 12.2255 16.0714 12.389 16.0714 12.5595C16.0714 12.73 16.0037 12.8935 15.8831 13.0141C15.7626 13.1346 15.5991 13.2024 15.4286 13.2024H14.1429C13.9724 13.2024 13.8088 13.1346 13.6883 13.0141C13.5677 12.8935 13.5 12.73 13.5 12.5595ZM10.2857 11.9166C10.1152 11.9166 9.9517 11.9844 9.83115 12.1049C9.71059 12.2255 9.64286 12.389 9.64286 12.5595C9.64286 12.73 9.71059 12.8935 9.83115 13.0141C9.9517 13.1346 10.1152 13.2024 10.2857 13.2024H11.5714C11.7419 13.2024 11.9054 13.1346 12.026 13.0141C12.1466 12.8935 12.2143 12.73 12.2143 12.5595C12.2143 12.389 12.1466 12.2255 12.026 12.1049C11.9054 11.9844 11.7419 11.9166 11.5714 11.9166H10.2857ZM5.78571 12.5595C5.78571 12.389 5.85344 12.2255 5.974 12.1049C6.09456 11.9844 6.25808 11.9166 6.42857 11.9166H7.71429C7.88478 11.9166 8.0483 11.9844 8.16885 12.1049C8.28941 12.2255 8.35714 12.389 8.35714 12.5595C8.35714 12.73 8.28941 12.8935 8.16885 13.0141C8.0483 13.1346 7.88478 13.2024 7.71429 13.2024H6.42857C6.25808 13.2024 6.09456 13.1346 5.974 13.0141C5.85344 12.8935 5.78571 12.73 5.78571 12.5595ZM2.57143 14.4881C2.40093 14.4881 2.23742 14.5558 2.11686 14.6764C1.9963 14.7969 1.92857 14.9604 1.92857 15.1309C1.92857 15.3014 1.9963 15.4649 2.11686 15.5855C2.23742 15.7061 2.40093 15.7738 2.57143 15.7738H3.85714C4.02764 15.7738 4.19115 15.7061 4.31171 15.5855C4.43227 15.4649 4.5 15.3014 4.5 15.1309C4.5 14.9604 4.43227 14.7969 4.31171 14.6764C4.19115 14.5558 4.02764 14.4881 3.85714 14.4881H2.57143ZM9.64286 15.1309C9.64286 14.9604 9.71059 14.7969 9.83115 14.6764C9.9517 14.5558 10.1152 14.4881 10.2857 14.4881H11.5714C11.7419 14.4881 11.9054 14.5558 12.026 14.6764C12.1466 14.7969 12.2143 14.9604 12.2143 15.1309C12.2143 15.3014 12.1466 15.4649 12.026 15.5855C11.9054 15.7061 11.7419 15.7738 11.5714 15.7738H10.2857C10.1152 15.7738 9.9517 15.7061 9.83115 15.5855C9.71059 15.4649 9.64286 15.3014 9.64286 15.1309ZM6.42857 14.4881C6.25808 14.4881 6.09456 14.5558 5.974 14.6764C5.85344 14.7969 5.78571 14.9604 5.78571 15.1309C5.78571 15.3014 5.85344 15.4649 5.974 15.5855C6.09456 15.7061 6.25808 15.7738 6.42857 15.7738H7.71429C7.88478 15.7738 8.0483 15.7061 8.16885 15.5855C8.28941 15.4649 8.35714 15.3014 8.35714 15.1309C8.35714 14.9604 8.28941 14.7969 8.16885 14.6764C8.0483 14.5558 7.88478 14.4881 7.71429 14.4881H6.42857Z" fill="#8B8B8B"/>
</svg>
