<svg width="16" height="14" viewBox="0 0 16 14" fill="none" xmlns="http://www.w3.org/2000/svg">
<path fill-rule="evenodd" clip-rule="evenodd" d="M6.59935 13.5735H9.81866C12.0796 13.5735 13.2104 13.5735 14.0224 13.041C14.3729 12.8115 14.6747 12.5151 14.9106 12.1688C15.4532 11.372 15.4532 10.2614 15.4532 8.04182C15.4532 5.82221 15.4532 4.71168 14.9106 3.91482C14.6747 3.56854 14.3729 3.27216 14.0224 3.04262C13.5009 2.69997 12.8474 2.57755 11.847 2.53408C11.3696 2.53408 10.9589 2.17912 10.8654 1.71911C10.794 1.38217 10.6085 1.08021 10.3401 0.864267C10.0718 0.64833 9.73713 0.531657 9.3927 0.533969H7.02531C6.30959 0.533969 5.69311 1.03019 5.55257 1.71911C5.45912 2.17912 5.04838 2.53408 4.57099 2.53408C3.57129 2.57755 2.91787 2.7007 2.39557 3.04262C2.04534 3.27223 1.74379 3.56861 1.50816 3.91482C0.964844 4.71168 0.964844 5.82148 0.964844 8.04182C0.964844 10.2622 0.964844 11.3712 1.50743 12.1688C1.74214 12.5136 2.0435 12.8099 2.39557 13.041C3.20764 13.5735 4.33845 13.5735 6.59935 13.5735ZM8.20901 5.07823C6.54212 5.07823 5.19036 6.40464 5.19036 8.04109C5.19036 9.67755 6.54285 11.0061 8.20901 11.0061C9.87516 11.0061 11.2276 9.679 11.2276 8.04254C11.2276 6.40609 9.87516 5.07823 8.20901 5.07823ZM8.20901 6.26338C7.20931 6.26338 6.39796 7.05951 6.39796 8.04182C6.39796 9.0234 7.20931 9.81954 8.20901 9.81954C9.2087 9.81954 10.02 9.0234 10.02 8.04182C10.02 7.06023 9.2087 6.26338 8.20901 6.26338ZM11.6297 5.6708C11.6297 5.34337 11.8999 5.07823 12.2339 5.07823H13.038C13.3712 5.07823 13.6421 5.34337 13.6421 5.6708C13.6406 5.82938 13.5762 5.98086 13.463 6.09197C13.3499 6.20308 13.1973 6.26473 13.0387 6.26338H12.2339C12.1553 6.26414 12.0773 6.24942 12.0044 6.22005C11.9315 6.19069 11.8651 6.14725 11.809 6.09222C11.7529 6.0372 11.7082 5.97166 11.6775 5.89935C11.6467 5.82705 11.6305 5.74938 11.6297 5.6708Z" fill="#494A54"/>
</svg>
