<svg width="16" height="15" viewBox="0 0 16 15" fill="none" xmlns="http://www.w3.org/2000/svg">
<path fill-rule="evenodd" clip-rule="evenodd" d="M15.6531 0.618063C15.8757 0.840729 16.0008 1.14269 16.0008 1.45754C16.0008 1.77239 15.8757 2.07435 15.6531 2.29701L6.75337 11.1968C6.63575 11.3144 6.49612 11.4077 6.34244 11.4714C6.18876 11.5351 6.02404 11.5678 5.85769 11.5678C5.69134 11.5678 5.52662 11.5351 5.37294 11.4714C5.21926 11.4077 5.07962 11.3144 4.96201 11.1968L0.540226 6.77579C0.42682 6.66626 0.336363 6.53524 0.274134 6.39038C0.211904 6.24551 0.179149 6.0897 0.177779 5.93204C0.176409 5.77438 0.206452 5.61803 0.266154 5.47211C0.325857 5.32618 0.414023 5.19361 0.525509 5.08213C0.636995 4.97064 0.769567 4.88247 0.915491 4.82277C1.06142 4.76307 1.21777 4.73303 1.37543 4.7344C1.53309 4.73577 1.68889 4.76852 1.83376 4.83075C1.97862 4.89298 2.10964 4.98344 2.21918 5.09684L5.85729 8.73496L13.9734 0.618063C14.0837 0.507724 14.2146 0.420195 14.3587 0.360476C14.5028 0.300757 14.6573 0.27002 14.8133 0.27002C14.9693 0.27002 15.1237 0.300757 15.2678 0.360476C15.4119 0.420195 15.5429 0.507724 15.6531 0.618063Z" fill="#FF3E68"/>
</svg>
