<svg width="24" height="24" viewBox="0 0 24 24" fill="none" xmlns="http://www.w3.org/2000/svg">
<path d="M12.0003 0.364258C9.57632 0.367117 7.25246 1.3313 5.53846 3.04529C3.82447 4.75929 2.86029 7.08315 2.85743 9.50711C2.8552 11.4879 3.50217 13.4148 4.6993 14.9928C4.6993 14.9928 4.94865 15.3211 4.98937 15.3685L12.0003 23.637L19.0145 15.3643C19.0511 15.3203 19.3013 14.9928 19.3013 14.9928L19.3021 14.9903C20.4984 13.4128 21.145 11.4869 21.1431 9.50711C21.1403 7.08315 20.1761 4.75929 18.4621 3.04529C16.7481 1.3313 14.4242 0.367117 12.0003 0.364258ZM12.8314 13.6629H11.1691V12.0006H12.8314V13.6629ZM12.8314 10.3383H11.1691V8.67594H12.8314V10.3383ZM16.1561 13.6629H14.4938V7.0136H9.50677V13.6629H7.84444V7.0136C7.84444 6.57272 8.01957 6.1499 8.33132 5.83815C8.64307 5.5264 9.06589 5.35127 9.50677 5.35127H14.4938C14.9347 5.35127 15.3575 5.5264 15.6692 5.83815C15.981 6.1499 16.1561 6.57272 16.1561 7.0136V13.6629Z" fill="#999999"/>
</svg>
