<svg width="14" height="14" viewBox="0 0 14 14" fill="none" xmlns="http://www.w3.org/2000/svg">
<path d="M0.484375 7.05392C0.484375 7.24605 0.560697 7.43031 0.696552 7.56616C0.832406 7.70202 1.01666 7.77834 1.20879 7.77834H5.55529C5.74741 7.77834 5.93167 7.70202 6.06753 7.56616C6.20338 7.43031 6.2797 7.24605 6.2797 7.05392V1.2586C6.2797 1.06647 6.20338 0.882211 6.06753 0.746356C5.93167 0.610502 5.74741 0.53418 5.55529 0.53418H1.20879C1.01666 0.53418 0.832406 0.610502 0.696552 0.746356C0.560697 0.882211 0.484375 1.06647 0.484375 1.2586V7.05392ZM0.484375 12.8493C0.484375 13.0414 0.560697 13.2256 0.696552 13.3615C0.832406 13.4973 1.01666 13.5737 1.20879 13.5737H5.55529C5.74741 13.5737 5.93167 13.4973 6.06753 13.3615C6.20338 13.2256 6.2797 13.0414 6.2797 12.8493V9.95159C6.2797 9.75946 6.20338 9.5752 6.06753 9.43935C5.93167 9.3035 5.74741 9.22717 5.55529 9.22717H1.20879C1.01666 9.22717 0.832406 9.3035 0.696552 9.43935C0.560697 9.5752 0.484375 9.75946 0.484375 9.95159V12.8493ZM7.72854 12.8493C7.72854 13.0414 7.80486 13.2256 7.94071 13.3615C8.07657 13.4973 8.26082 13.5737 8.45295 13.5737H12.7994C12.9916 13.5737 13.1758 13.4973 13.3117 13.3615C13.4475 13.2256 13.5239 13.0414 13.5239 12.8493V7.05392C13.5239 6.8618 13.4475 6.67754 13.3117 6.54169C13.1758 6.40583 12.9916 6.32951 12.7994 6.32951H8.45295C8.26082 6.32951 8.07657 6.40583 7.94071 6.54169C7.80486 6.67754 7.72854 6.8618 7.72854 7.05392V12.8493ZM8.45295 0.53418C8.26082 0.53418 8.07657 0.610502 7.94071 0.746356C7.80486 0.882211 7.72854 1.06647 7.72854 1.2586V4.15626C7.72854 4.34839 7.80486 4.53264 7.94071 4.6685C8.07657 4.80435 8.26082 4.88068 8.45295 4.88068H12.7994C12.9916 4.88068 13.1758 4.80435 13.3117 4.6685C13.4475 4.53264 13.5239 4.34839 13.5239 4.15626V1.2586C13.5239 1.06647 13.4475 0.882211 13.3117 0.746356C13.1758 0.610502 12.9916 0.53418 12.7994 0.53418H8.45295Z" fill="white"/>
</svg>
