<svg width="20" height="21" viewBox="0 0 20 21" fill="none" xmlns="http://www.w3.org/2000/svg">
<path d="M7.78439 4.78434H11.5945C11.5945 4.27909 11.3938 3.79452 11.0366 3.43725C10.6793 3.07998 10.1947 2.87926 9.68947 2.87926C9.18421 2.87926 8.69964 3.07998 8.34237 3.43725C7.9851 3.79452 7.78439 4.27909 7.78439 4.78434ZM5.87931 4.78434C5.87931 3.77383 6.28073 2.8047 6.99528 2.09015C7.70982 1.37561 8.67895 0.974182 9.68947 0.974182C10.7 0.974182 11.6691 1.37561 12.3837 2.09015C13.0982 2.8047 13.4996 3.77383 13.4996 4.78434H18.2623C18.515 4.78434 18.7572 4.8847 18.9359 5.06334C19.1145 5.24197 19.2149 5.48426 19.2149 5.73688C19.2149 5.98951 19.1145 6.2318 18.9359 6.41043C18.7572 6.58907 18.515 6.68943 18.2623 6.68943H17.4222L16.5782 16.5387C16.4971 17.4898 16.0619 18.3758 15.3588 19.0213C14.6558 19.6669 13.7359 20.0251 12.7814 20.025H6.59752C5.64299 20.0251 4.72318 19.6669 4.02009 19.0213C3.31699 18.3758 2.88183 17.4898 2.80069 16.5387L1.95674 6.68943H1.1166C0.863974 6.68943 0.621691 6.58907 0.443055 6.41043C0.264419 6.2318 0.164063 5.98951 0.164062 5.73688C0.164063 5.48426 0.264419 5.24197 0.443055 5.06334C0.621691 4.8847 0.863974 4.78434 1.1166 4.78434H5.87931ZM12.5471 10.4996C12.5471 10.247 12.4467 10.0047 12.2681 9.82604C12.0895 9.6474 11.8472 9.54705 11.5945 9.54705C11.3419 9.54705 11.0996 9.6474 10.921 9.82604C10.7424 10.0047 10.642 10.247 10.642 10.4996V14.3097C10.642 14.5624 10.7424 14.8047 10.921 14.9833C11.0996 15.1619 11.3419 15.2623 11.5945 15.2623C11.8472 15.2623 12.0895 15.1619 12.2681 14.9833C12.4467 14.8047 12.5471 14.5624 12.5471 14.3097V10.4996ZM7.78439 9.54705C7.53176 9.54705 7.28947 9.6474 7.11084 9.82604C6.9322 10.0047 6.83185 10.247 6.83185 10.4996V14.3097C6.83185 14.5624 6.9322 14.8047 7.11084 14.9833C7.28947 15.1619 7.53176 15.2623 7.78439 15.2623C8.03702 15.2623 8.2793 15.1619 8.45793 14.9833C8.63657 14.8047 8.73693 14.5624 8.73693 14.3097V10.4996C8.73693 10.247 8.63657 10.0047 8.45793 9.82604C8.2793 9.6474 8.03702 9.54705 7.78439 9.54705Z" fill="white"/>
</svg>
