<svg width="15" height="19" viewBox="0 0 15 19" fill="none" xmlns="http://www.w3.org/2000/svg">
<path d="M0 12.2768V10.1694H1.46281C1.46281 9.94625 1.46281 9.72311 1.46281 9.49997C1.46281 9.22725 1.46281 8.95452 1.46281 8.70658H0V6.62394H1.73554C2.50413 2.78096 4.95868 0.549561 8.55372 0.549561C12.0992 0.549561 14.405 2.73138 14.9504 6.57435H11.6281C11.3802 4.5165 10.2645 3.32642 8.50413 3.32642C6.7686 3.32642 5.60331 4.46692 5.08264 6.62394H9.71901V8.70658H4.78512C4.78512 9.20245 4.78512 9.67353 4.78512 10.1694H9.71901V12.2768H5.03306C5.55372 14.5082 6.7438 15.6735 8.50413 15.6735C10.314 15.6735 11.4298 14.4339 11.6777 12.2272H15C14.6033 16.1446 12.2479 18.4504 8.60331 18.4504C4.93388 18.4504 2.47934 16.1694 1.71074 12.2768H0Z" fill="black"/>
</svg>
