<svg width="21" height="21" viewBox="0 0 21 21" fill="none" xmlns="http://www.w3.org/2000/svg">
<path fill-rule="evenodd" clip-rule="evenodd" d="M10.6534 3.72729C8.29393 3.72729 6.19778 4.79145 4.70525 6.10874C3.95687 6.76993 3.33886 7.51154 2.90371 8.25145C2.47534 8.97698 2.1875 9.76346 2.1875 10.5C2.1875 11.2365 2.47534 12.023 2.90371 12.7485C3.33886 13.4876 3.95602 14.23 4.70525 14.8912C6.19778 16.2085 8.29478 17.2727 10.6534 17.2727C13.0128 17.2727 15.109 16.2085 16.6015 14.8912C17.3507 14.23 17.9679 13.4876 18.403 12.7485C18.8314 12.023 19.1192 11.2365 19.1192 10.5C19.1192 9.76346 18.8314 8.97698 18.403 8.25145C17.9679 7.51238 17.3507 6.76993 16.6015 6.10874C15.109 4.79145 13.012 3.72729 10.6534 3.72729ZM12.3465 10.5C12.6513 10.5 12.9366 10.4196 13.1838 10.279C13.2289 10.7982 13.1133 11.3186 12.8525 11.7698C12.5918 12.2209 12.1986 12.5809 11.7263 12.801C11.2539 13.0211 10.7254 13.0906 10.2122 13C9.69905 12.9095 9.22617 12.6633 8.85771 12.2948C8.48925 11.9263 8.24304 11.4535 8.15248 10.9403C8.06192 10.4271 8.13139 9.89856 8.35148 9.42624C8.57156 8.95391 8.9316 8.56071 9.38275 8.29997C9.83391 8.03923 10.3544 7.92358 10.8735 7.96869C10.7267 8.22636 10.6501 8.51806 10.6515 8.8146C10.6529 9.11115 10.7321 9.40213 10.8813 9.65843C11.0304 9.91474 11.2443 10.1274 11.5014 10.2751C11.7586 10.4228 12.05 10.5003 12.3465 10.5Z" fill="white"/>
</svg>
