<svg width="24" height="24" viewBox="0 0 24 24" fill="none" xmlns="http://www.w3.org/2000/svg">
<path d="M22 7.50691C22 7.79107 21.8871 8.06359 21.6862 8.26452C21.4852 8.46546 21.2127 8.57834 20.9285 8.57834H17.4285C17.1899 9.46816 16.6644 10.2544 15.9334 10.8151C15.2025 11.3759 14.307 11.6798 13.3857 11.6798C12.4644 11.6798 11.5689 11.3759 10.838 10.8151C10.107 10.2544 9.58148 9.46816 9.34285 8.57834H3.07143C2.93073 8.57834 2.7914 8.55063 2.66141 8.49678C2.53142 8.44294 2.4133 8.36402 2.31381 8.26452C2.21432 8.16503 2.1354 8.04692 2.08156 7.91693C2.02771 7.78694 2 7.64761 2 7.50691C2 7.36621 2.02771 7.22689 2.08156 7.09689C2.1354 6.9669 2.21432 6.84879 2.31381 6.7493C2.4133 6.64981 2.53142 6.57089 2.66141 6.51704C2.7914 6.4632 2.93073 6.43548 3.07143 6.43548H9.34285C9.58148 5.54566 10.107 4.75943 10.838 4.19867C11.5689 3.63792 12.4644 3.33398 13.3857 3.33398C14.307 3.33398 15.2025 3.63792 15.9334 4.19867C16.6644 4.75943 17.1899 5.54566 17.4285 6.43548H20.9285C21.0698 6.43356 21.21 6.45996 21.3408 6.51313C21.4717 6.56629 21.5906 6.64514 21.6904 6.74502C21.7903 6.84489 21.8692 6.96377 21.9223 7.09463C21.9755 7.22549 22.0019 7.36568 22 7.50691ZM22 16.9355C22.0019 17.0767 21.9755 17.2169 21.9223 17.3477C21.8692 17.4786 21.7903 17.5975 21.6904 17.6974C21.5906 17.7972 21.4717 17.8761 21.3408 17.9293C21.21 17.9824 21.0698 18.0088 20.9285 18.0069H12.7857C12.5471 18.8967 12.0215 19.683 11.2906 20.2437C10.5596 20.8045 9.66411 21.1084 8.74285 21.1084C7.82158 21.1084 6.92605 20.8045 6.19511 20.2437C5.46416 19.683 4.93863 18.8967 4.7 18.0069H3.07143C2.78727 18.0069 2.51475 17.894 2.31381 17.6931C2.11288 17.4922 2 17.2196 2 16.9355C2 16.6513 2.11288 16.3788 2.31381 16.1779C2.51475 15.9769 2.78727 15.864 3.07143 15.864H4.7C4.93863 14.9742 5.46416 14.188 6.19511 13.6272C6.92605 13.0665 7.82158 12.7625 8.74285 12.7625C9.66411 12.7625 10.5596 13.0665 11.2906 13.6272C12.0215 14.188 12.5471 14.9742 12.7857 15.864H20.9285C21.2127 15.864 21.4852 15.9769 21.6862 16.1779C21.8871 16.3788 22 16.6513 22 16.9355Z" fill="black"/>
</svg>
