<svg width="23" height="24" viewBox="0 0 23 24" fill="none" xmlns="http://www.w3.org/2000/svg">
<path d="M12.888 2.78516C13.9247 2.78792 14.4509 2.79345 14.9053 2.80635L15.084 2.8128C15.2905 2.82018 15.4941 2.82939 15.7402 2.84045C16.7207 2.88653 17.3897 3.04135 17.9768 3.26897C18.585 3.50304 19.0974 3.82006 19.6098 4.33152C20.0785 4.79204 20.4412 5.34934 20.6723 5.9645C20.8999 6.55153 21.0548 7.22057 21.1008 8.20202C21.1119 8.44716 21.1211 8.65082 21.1285 8.85817L21.134 9.03695C21.1478 9.49035 21.1534 10.0166 21.1552 11.0533L21.1561 11.7408V12.948C21.1584 13.6202 21.1513 14.2924 21.1349 14.9644L21.1294 15.1431C21.122 15.3505 21.1128 15.5541 21.1018 15.7993C21.0557 16.7807 20.899 17.4489 20.6723 18.0368C20.4412 18.652 20.0785 19.2093 19.6098 19.6698C19.1492 20.1386 18.5919 20.5012 17.9768 20.7323C17.3897 20.96 16.7207 21.1148 15.7402 21.1609L15.084 21.1885L14.9053 21.194C14.4509 21.2069 13.9247 21.2134 12.888 21.2152L12.2005 21.2161H10.9942C10.3217 21.2185 9.64922 21.2115 8.97693 21.195L8.79814 21.1894C8.57938 21.1811 8.36066 21.1716 8.142 21.1609C7.16147 21.1148 6.49243 20.96 5.90448 20.7323C5.28965 20.5011 4.73268 20.1385 4.27241 19.6698C3.8033 19.2094 3.44036 18.652 3.20895 18.0368C2.98132 17.4498 2.8265 16.7807 2.78043 15.7993L2.75278 15.1431L2.74817 14.9644C2.73118 14.2924 2.7235 13.6202 2.72513 12.948V11.0533C2.72258 10.3811 2.72934 9.70894 2.74541 9.03695L2.75186 8.85817C2.75923 8.65082 2.76845 8.44716 2.7795 8.20202C2.82558 7.22057 2.9804 6.55245 3.20803 5.9645C3.43997 5.34909 3.80355 4.79177 4.27334 4.33152C4.73333 3.86295 5.28998 3.50035 5.90448 3.26897C6.49243 3.04135 7.16055 2.88653 8.142 2.84045C8.38713 2.82939 8.59172 2.82018 8.79814 2.8128L8.97693 2.80727C9.64891 2.7909 10.3211 2.78383 10.9933 2.78608L12.888 2.78516ZM11.9406 7.3929C10.7186 7.3929 9.54658 7.87836 8.68246 8.74248C7.81834 9.6066 7.33288 10.7786 7.33288 12.0007C7.33288 13.2227 7.81834 14.3947 8.68246 15.2588C9.54658 16.1229 10.7186 16.6084 11.9406 16.6084C13.1627 16.6084 14.3347 16.1229 15.1988 15.2588C16.0629 14.3947 16.5484 13.2227 16.5484 12.0007C16.5484 10.7786 16.0629 9.6066 15.1988 8.74248C14.3347 7.87836 13.1627 7.3929 11.9406 7.3929ZM11.9406 9.236C12.3037 9.23594 12.6632 9.30739 12.9986 9.44627C13.3341 9.58515 13.6389 9.78875 13.8957 10.0454C14.1524 10.3021 14.3561 10.6068 14.4951 10.9422C14.6341 11.2776 14.7057 11.6371 14.7057 12.0002C14.7058 12.3633 14.6343 12.7228 14.4955 13.0582C14.3566 13.3937 14.153 13.6985 13.8963 13.9552C13.6396 14.212 13.3349 14.4157 12.9995 14.5547C12.6641 14.6937 12.3046 14.7652 11.9415 14.7653C11.2083 14.7653 10.5051 14.474 9.98665 13.9556C9.46818 13.4371 9.1769 12.7339 9.1769 12.0007C9.1769 11.2674 9.46818 10.5642 9.98665 10.0458C10.5051 9.52728 11.2083 9.236 11.9415 9.236M16.7797 6.01058C16.4742 6.01058 16.1812 6.13194 15.9651 6.34797C15.7491 6.564 15.6277 6.857 15.6277 7.16252C15.6277 7.46803 15.7491 7.76103 15.9651 7.97706C16.1812 8.19309 16.4742 8.31445 16.7797 8.31445C17.0852 8.31445 17.3782 8.19309 17.5942 7.97706C17.8103 7.76103 17.9316 7.46803 17.9316 7.16252C17.9316 6.857 17.8103 6.564 17.5942 6.34797C17.3782 6.13194 17.0852 6.01058 16.7797 6.01058Z" fill="#616161"/>
</svg>
