<svg width="28" height="29" viewBox="0 0 28 29" fill="none" xmlns="http://www.w3.org/2000/svg">
<path d="M15.1235 2.59863C16.4296 2.60212 17.0924 2.60908 17.6648 2.62533L17.89 2.63346C18.15 2.64275 18.4066 2.65436 18.7166 2.66829C19.9518 2.72633 20.7946 2.92137 21.5341 3.20811C22.3003 3.50298 22.9458 3.90234 23.5912 4.54665C24.1818 5.12679 24.6386 5.82884 24.9298 6.60379C25.2165 7.34329 25.4115 8.18611 25.4696 9.42248C25.4835 9.73129 25.4951 9.98785 25.5044 10.2491L25.5114 10.4743C25.5288 11.0454 25.5358 11.7083 25.5381 13.0144L25.5392 13.8804V15.4012C25.5421 16.248 25.5332 17.0947 25.5125 17.9413L25.5056 18.1665C25.4963 18.4277 25.4847 18.6843 25.4708 18.9931C25.4127 20.2294 25.2154 21.0711 24.9298 21.8118C24.6386 22.5867 24.1818 23.2888 23.5912 23.8689C23.0111 24.4594 22.309 24.9163 21.5341 25.2074C20.7946 25.4942 19.9518 25.6892 18.7166 25.7473L17.89 25.7821L17.6648 25.789C17.0924 25.8053 16.4296 25.8134 15.1235 25.8158L14.2575 25.8169H12.7379C11.8907 25.8199 11.0435 25.811 10.1966 25.7902L9.9714 25.7832C9.69581 25.7728 9.42028 25.7608 9.14482 25.7473C7.90961 25.6892 7.06679 25.4942 6.32613 25.2074C5.5516 24.9161 4.84996 24.4593 4.27015 23.8689C3.67918 23.2889 3.22197 22.5868 2.93045 21.8118C2.64371 21.0723 2.44867 20.2294 2.39063 18.9931L2.3558 18.1665L2.35 17.9413C2.3286 17.0948 2.31892 16.248 2.32097 15.4012V13.0144C2.31776 12.1676 2.32627 11.3208 2.34651 10.4743L2.35464 10.2491C2.36393 9.98785 2.37554 9.73129 2.38947 9.42248C2.44751 8.18611 2.64255 7.34445 2.92929 6.60379C3.22149 5.82853 3.6795 5.12645 4.27131 4.54665C4.85078 3.95638 5.55201 3.49959 6.32613 3.20811C7.06679 2.92137 7.90845 2.72633 9.14482 2.66829C9.45363 2.65436 9.71135 2.64275 9.9714 2.63346L10.1966 2.62649C11.0431 2.60587 11.8899 2.59697 12.7367 2.59979L15.1235 2.59863ZM13.9301 8.4032C12.3906 8.4032 10.9142 9.01475 9.82566 10.1033C8.73709 11.1919 8.12554 12.6683 8.12554 14.2078C8.12554 15.7472 8.73709 17.2237 9.82566 18.3122C10.9142 19.4008 12.3906 20.0123 13.9301 20.0123C15.4696 20.0123 16.946 19.4008 18.0346 18.3122C19.1231 17.2237 19.7347 15.7472 19.7347 14.2078C19.7347 12.6683 19.1231 11.1919 18.0346 10.1033C16.946 9.01475 15.4696 8.4032 13.9301 8.4032ZM13.9301 10.725C14.3875 10.725 14.8404 10.815 15.2629 10.9899C15.6855 11.1649 16.0695 11.4213 16.393 11.7447C16.7164 12.068 16.973 12.4519 17.1481 12.8744C17.3232 13.297 17.4134 13.7498 17.4134 14.2072C17.4135 14.6646 17.3235 15.1174 17.1485 15.54C16.9736 15.9626 16.7171 16.3466 16.3938 16.67C16.0704 16.9935 15.6865 17.2501 15.264 17.4252C14.8415 17.6003 14.3886 17.6904 13.9313 17.6905C13.0076 17.6905 12.1217 17.3236 11.4686 16.6704C10.8155 16.0173 10.4485 15.1315 10.4485 14.2078C10.4485 13.2841 10.8155 12.3982 11.4686 11.7451C12.1217 11.092 13.0076 10.725 13.9313 10.725M20.0261 6.66183C19.6412 6.66183 19.2721 6.81472 19 7.08686C18.7278 7.359 18.5749 7.72811 18.5749 8.11297C18.5749 8.49784 18.7278 8.86694 19 9.13909C19.2721 9.41123 19.6412 9.56412 20.0261 9.56412C20.4109 9.56412 20.78 9.41123 21.0522 9.13909C21.3243 8.86694 21.4772 8.49784 21.4772 8.11297C21.4772 7.72811 21.3243 7.359 21.0522 7.08686C20.78 6.81472 20.4109 6.66183 20.0261 6.66183Z" fill="black"/>
</svg>
