<svg width="18" height="18" viewBox="0 0 18 18" fill="none" xmlns="http://www.w3.org/2000/svg">
<path fill-rule="evenodd" clip-rule="evenodd" d="M14.8294 0.862061C15.5875 0.862061 16.3407 1.26156 16.6009 1.97131L16.6746 2.18041L16.7513 2.41841L16.829 2.68701L16.9037 2.98111L16.9745 3.30071L17.0075 3.46901L17.0668 3.82346C17.29 5.34496 17.2191 7.41896 15.9777 9.52271L15.8234 9.77516C14.5208 11.8279 14.6149 13.8943 14.909 15.2364L14.9809 15.5331L15.0178 15.6708L15.0925 15.9258L15.1672 16.1485C15.4332 16.905 14.8586 17.7822 13.8792 17.857L13.7433 17.8621H2.50242C1.74533 17.8621 0.991147 17.4626 0.731018 16.7528L0.658221 16.5437L0.58057 16.3057L0.502919 16.0371L0.428181 15.743L0.357325 15.4234C0.334029 15.3129 0.312676 15.1987 0.293263 15.0809L0.239878 14.7154L0.199111 14.3295C0.0758412 12.8811 0.262203 11.0527 1.35416 9.20141L1.50849 8.94896C2.81108 6.89706 2.71596 4.82986 2.42283 3.48856L2.35197 3.19191L2.31412 3.05421L2.23938 2.79921L2.16464 2.57651C1.89869 1.82001 2.4733 0.942811 3.45267 0.868011L3.58953 0.862061H14.8294ZM8.66594 9.36206H5.75404C5.49661 9.36206 5.24973 9.45161 5.0677 9.61102C4.88567 9.77043 4.78341 9.98663 4.78341 10.2121C4.78341 10.4375 4.88567 10.6537 5.0677 10.8131C5.24973 10.9725 5.49661 11.0621 5.75404 11.0621H8.66594C8.92336 11.0621 9.17025 10.9725 9.35228 10.8131C9.5343 10.6537 9.63657 10.4375 9.63657 10.2121C9.63657 9.98663 9.5343 9.77043 9.35228 9.61102C9.17025 9.45161 8.92336 9.36206 8.66594 9.36206ZM12.5485 5.96206H6.72467C6.47728 5.9623 6.23932 6.04526 6.05943 6.19398C5.87954 6.34271 5.77128 6.54597 5.75678 6.76225C5.74229 6.97852 5.82264 7.19148 5.98142 7.35762C6.14021 7.52375 6.36544 7.63052 6.61111 7.65611L6.72467 7.66206H12.5485C12.7959 7.66182 13.0338 7.57886 13.2137 7.43014C13.3936 7.28142 13.5019 7.07815 13.5163 6.86187C13.5308 6.6456 13.4505 6.43264 13.2917 6.2665C13.1329 6.10037 12.9077 5.9936 12.662 5.96801L12.5485 5.96206Z" fill="#494A54"/>
</svg>
