<svg width="15" height="17" viewBox="0 0 15 17" fill="none" xmlns="http://www.w3.org/2000/svg">
<path fill-rule="evenodd" clip-rule="evenodd" d="M12.7887 0.296143C13.4186 0.296143 14.0445 0.675238 14.2607 1.34874L14.322 1.54716L14.3857 1.773L14.4502 2.02788L14.5123 2.30696L14.5712 2.61024L14.5987 2.76994L14.6479 3.10629C14.8334 4.55007 14.7745 6.51814 13.7429 8.51444L13.6146 8.75399C12.5322 10.7019 12.6104 12.6627 12.8548 13.9363L12.9145 14.2178L12.9452 14.3485L13.0073 14.5904L13.0694 14.8018C13.2904 15.5196 12.8129 16.352 11.999 16.423L11.8861 16.4278H2.54504C1.91591 16.4278 1.28919 16.0487 1.07303 15.3753L1.01253 15.1768L0.948006 14.951L0.883479 14.6961L0.821372 14.417L0.762491 14.1138C0.743133 14.0089 0.725388 13.9005 0.709257 13.7887L0.664895 13.4419L0.631018 13.0757C0.528582 11.7013 0.683446 9.96629 1.59085 8.20955L1.7191 7.96999C2.80154 6.0229 2.72249 4.06128 2.4789 2.78849L2.42002 2.50699L2.38857 2.37633L2.32646 2.13435L2.26435 1.92302C2.04335 1.20516 2.52085 0.372768 3.33469 0.301789L3.44842 0.296143H12.7887ZM7.66686 8.36199H5.2471C5.03318 8.36199 4.82803 8.44697 4.67676 8.59824C4.5255 8.7495 4.44052 8.95466 4.44052 9.16858C4.44052 9.3825 4.5255 9.58766 4.67676 9.73892C4.82803 9.89018 5.03318 9.97516 5.2471 9.97516H7.66686C7.88078 9.97516 8.08594 9.89018 8.2372 9.73892C8.38846 9.58766 8.47344 9.3825 8.47344 9.16858C8.47344 8.95466 8.38846 8.7495 8.2372 8.59824C8.08594 8.44697 7.88078 8.36199 7.66686 8.36199ZM10.8932 5.13565H6.05369C5.84811 5.13588 5.65037 5.2146 5.50088 5.35573C5.35139 5.49686 5.26143 5.68974 5.24938 5.89497C5.23734 6.1002 5.30411 6.30228 5.43606 6.45993C5.56801 6.61758 5.75518 6.7189 5.95932 6.74318L6.05369 6.74882H10.8932C11.0988 6.7486 11.2965 6.66988 11.446 6.52875C11.5955 6.38762 11.6855 6.19474 11.6975 5.98951C11.7096 5.78428 11.6428 5.5822 11.5108 5.42455C11.3789 5.2669 11.1917 5.16558 10.9876 5.1413L10.8932 5.13565Z" fill="#494A54"/>
</svg>
