<svg width="15" height="15" viewBox="0 0 15 15" fill="none" xmlns="http://www.w3.org/2000/svg">
<path d="M5.01431 9.9857L9.98578 5.01424M6.67147 2.5285L7.0551 2.08438C7.83214 1.30745 8.886 0.871016 9.98483 0.871094C11.0837 0.871171 12.1375 1.30775 12.9144 2.0848C13.6913 2.86184 14.1278 3.9157 14.1277 5.01453C14.1276 6.11336 13.691 7.16715 12.914 7.94409L12.4715 8.32855M8.32862 12.4714L7.99968 12.9139C7.21335 13.6909 6.15247 14.1266 5.04704 14.1266C3.94161 14.1266 2.88073 13.6909 2.0944 12.9139C1.70672 12.5309 1.39893 12.0747 1.18885 11.5719C0.978778 11.069 0.870605 10.5294 0.870605 9.98446C0.870605 9.43948 0.978778 8.89993 1.18885 8.39707C1.39893 7.8942 1.70672 7.43804 2.0944 7.05502L2.52858 6.67139" stroke="#656565" stroke-width="1.65716" stroke-linecap="round" stroke-linejoin="round"/>
</svg>
