<svg width="14" height="16" viewBox="0 0 14 16" fill="none" xmlns="http://www.w3.org/2000/svg">
<path d="M6.96301 0.530518C8.746 0.530518 10.456 1.23881 11.7167 2.49957C12.9775 3.76034 13.6858 5.4703 13.6858 7.2533C13.6858 9.5495 12.4339 11.4289 11.1147 12.7772C10.4556 13.4435 9.73648 14.0477 8.9664 14.5819L8.64819 14.7985L8.49879 14.8978L8.21718 15.0771L7.9662 15.2302L7.65546 15.411C7.44454 15.5314 7.20587 15.5947 6.96301 15.5947C6.72015 15.5947 6.48149 15.5314 6.27057 15.411L5.95982 15.2302L5.5714 14.9912L5.42798 14.8978L5.12172 14.6939C4.29096 14.1318 3.51714 13.4899 2.81132 12.7772C1.49216 11.4281 0.240234 9.5495 0.240234 7.2533C0.240234 5.4703 0.948525 3.76034 2.20929 2.49957C3.47006 1.23881 5.18002 0.530518 6.96301 0.530518ZM6.96301 5.01237C6.66873 5.01237 6.37733 5.07033 6.10545 5.18295C5.83357 5.29557 5.58653 5.46063 5.37844 5.66872C5.17035 5.87681 5.00528 6.12385 4.89267 6.39573C4.78005 6.66761 4.72209 6.95901 4.72209 7.2533C4.72209 7.54758 4.78005 7.83898 4.89267 8.11086C5.00528 8.38274 5.17035 8.62978 5.37844 8.83787C5.58653 9.04596 5.83357 9.21102 6.10545 9.32364C6.37733 9.43626 6.66873 9.49422 6.96301 9.49422C7.55734 9.49422 8.12733 9.25812 8.54759 8.83787C8.96784 8.41761 9.20394 7.84763 9.20394 7.2533C9.20394 6.65896 8.96784 6.08898 8.54759 5.66872C8.12733 5.24847 7.55734 5.01237 6.96301 5.01237Z" fill="#FF3E68"/>
</svg>
