<svg width="27" height="27" viewBox="0 0 27 27" fill="none" xmlns="http://www.w3.org/2000/svg">
<path fill-rule="evenodd" clip-rule="evenodd" d="M4.66827 11.9015C4.66827 10.9559 4.85451 10.0196 5.21636 9.14602C5.57821 8.27244 6.10859 7.47868 6.7772 6.81007C7.44581 6.14145 8.23957 5.61108 9.11316 5.24923C9.98674 4.88738 10.923 4.70114 11.8686 4.70114C12.8142 4.70114 13.7505 4.88738 14.6241 5.24923C15.4976 5.61108 16.2914 6.14145 16.96 6.81007C17.6286 7.47868 18.159 8.27244 18.5208 9.14602C18.8827 10.0196 19.0689 10.9559 19.0689 11.9015C19.0689 13.8111 18.3103 15.6426 16.96 16.9929C15.6097 18.3432 13.7783 19.1018 11.8686 19.1018C9.95896 19.1018 8.12752 18.3432 6.7772 16.9929C5.42688 15.6426 4.66827 13.8111 4.66827 11.9015ZM11.8686 2.30103C10.3408 2.30124 8.83504 2.6661 7.47657 3.36528C6.1181 4.06446 4.94612 5.07776 4.05802 6.32098C3.16993 7.56419 2.59137 9.00141 2.37044 10.5132C2.14951 12.025 2.29257 13.5677 2.78775 15.013C3.28293 16.4584 4.11592 17.7647 5.2175 18.8234C6.31907 19.8821 7.65741 20.6626 9.12129 21.1C10.5852 21.5375 12.1323 21.6192 13.6341 21.3384C15.136 21.0577 16.5491 20.4226 17.7561 19.4858L21.8207 23.5504C22.047 23.769 22.3501 23.89 22.6648 23.8872C22.9794 23.8845 23.2804 23.7583 23.5029 23.5358C23.7254 23.3133 23.8516 23.0123 23.8544 22.6977C23.8571 22.383 23.7362 22.0799 23.5176 21.8535L19.453 17.7889C20.5547 16.3698 21.2362 14.67 21.4198 12.8828C21.6035 11.0956 21.282 9.29278 20.4918 7.67925C19.7017 6.06573 18.4746 4.70629 16.9502 3.75552C15.4258 2.80476 13.6652 2.30083 11.8686 2.30103Z" fill="#999999"/>
</svg>
