<svg width="17" height="17" viewBox="0 0 17 17" fill="none" xmlns="http://www.w3.org/2000/svg">
<path d="M12.8869 12.3537L13.1619 12.0048C13.9695 10.9803 14.4723 9.74912 14.6129 8.45219C14.7534 7.15525 14.526 5.84495 13.9566 4.67124C13.3872 3.49752 12.4989 2.50782 11.3933 1.81539C10.2878 1.12296 9.00957 0.755774 7.70504 0.755859L12.8869 12.3537ZM12.8869 12.3537L13.2011 12.6679M12.8869 12.3537L13.2011 12.6679M13.2011 12.6679L16.3973 15.8641C16.4643 15.9348 16.5013 16.0288 16.5005 16.1262C16.4996 16.2249 16.4601 16.3192 16.3903 16.389C16.3206 16.4587 16.2262 16.4983 16.1276 16.4992C16.0301 16.5 15.9361 16.463 15.8654 16.396L12.6692 13.1997L12.3551 12.8856M13.2011 12.6679L12.3551 12.8856M12.3551 12.8856L12.0062 13.1606M12.3551 12.8856L12.0062 13.1606M12.0062 13.1606C11.136 13.8463 10.1145 14.3141 9.02678 14.5247M12.0062 13.1606L9.02678 14.5247M9.02678 14.5247C7.9391 14.7354 6.8168 14.6829 5.75353 14.3716M9.02678 14.5247L5.75353 14.3716M5.75353 14.3716C4.69026 14.0603 3.71685 13.4993 2.91451 12.7353M5.75353 14.3716L2.91451 12.7353M2.91451 12.7353C2.11217 11.9713 1.50416 11.0265 1.14121 9.97977M2.91451 12.7353L1.14121 9.97977M1.14121 9.97977C0.778269 8.93301 0.670911 7.81463 0.828096 6.71794M1.14121 9.97977L0.828096 6.71794M0.828096 6.71794C0.985282 5.62125 1.40245 4.57805 2.0448 3.67538M0.828096 6.71794L2.0448 3.67538M2.0448 3.67538C2.68716 2.7727 3.53606 2.03673 4.5207 1.52886M2.0448 3.67538L4.5207 1.52886M4.5207 1.52886C5.50533 1.02099 6.59714 0.755955 7.70503 0.755859L4.5207 1.52886ZM7.705 1.50829C6.06188 1.50829 4.48606 2.16101 3.3242 3.32288C2.16233 4.48474 1.50961 6.06056 1.50961 7.70368C1.50961 9.3468 2.16233 10.9226 3.3242 12.0845C4.48606 13.2463 6.06188 13.8991 7.705 13.8991C9.34812 13.8991 10.9239 13.2463 12.0858 12.0845C13.2477 10.9226 13.9004 9.3468 13.9004 7.70368C13.9004 6.06056 13.2477 4.48474 12.0858 3.32288C10.9239 2.16101 9.34812 1.50829 7.705 1.50829ZM7.705 3.3845C8.85052 3.3845 9.94912 3.83956 10.7591 4.64956C11.5691 5.45956 12.0242 6.55816 12.0242 7.70368C12.0242 8.8492 11.5691 9.9478 10.7591 10.7578C9.94912 11.5678 8.85052 12.0229 7.705 12.0229C6.55948 12.0229 5.46088 11.5678 4.65088 10.7578C3.84088 9.9478 3.38582 8.8492 3.38582 7.70368C3.38582 6.55816 3.84088 5.45956 4.65088 4.64956C5.46088 3.83956 6.55948 3.3845 7.705 3.3845Z" fill="#666666" stroke="black"/>
</svg>
