<svg width="21" height="8" viewBox="0 0 21 8" fill="none" xmlns="http://www.w3.org/2000/svg">
<path d="M17.2812 0.4552C15.7173 0.4552 14.3258 1.44032 13.8086 2.918H7.20832C6.88202 1.99638 6.20369 1.24169 5.32197 0.819295C4.44025 0.3969 3.42704 0.34125 2.50436 0.664538C2.04577 0.825228 1.62334 1.07473 1.26123 1.39878C0.899118 1.72282 0.604425 2.11506 0.393998 2.55307C0.183571 2.99108 0.0615357 3.46627 0.0348693 3.95147C0.00820289 4.43667 0.0774282 4.92237 0.238588 5.3808C0.5693 6.30483 1.2522 7.06046 2.13816 7.48267C3.02412 7.90489 4.04116 7.95939 4.96717 7.63427C6.01386 7.26485 6.81427 6.42749 7.20832 5.3808H13.8209C14.4982 7.30179 16.6162 8.31154 18.5126 7.63427C18.9726 7.47523 19.3966 7.22686 19.7603 6.90343C20.124 6.58001 20.4202 6.1879 20.6319 5.74964C20.8436 5.31138 20.9666 4.83561 20.9938 4.34966C21.0211 3.86372 20.952 3.37718 20.7907 2.918C20.2612 1.44032 18.8574 0.4552 17.2812 0.4552ZM17.2812 5.9965C16.7913 5.9965 16.3215 5.8019 15.9751 5.4555C15.6287 5.1091 15.4341 4.63928 15.4341 4.1494C15.4341 3.65952 15.6287 3.1897 15.9751 2.84331C16.3215 2.49691 16.7913 2.3023 17.2812 2.3023C17.7711 2.3023 18.2409 2.49691 18.5873 2.84331C18.9337 3.1897 19.1283 3.65952 19.1283 4.1494C19.1283 4.63928 18.9337 5.1091 18.5873 5.4555C18.2409 5.8019 17.7711 5.9965 17.2812 5.9965Z" fill="black"/>
</svg>
