<svg width="12" height="14" viewBox="0 0 12 14" fill="none" xmlns="http://www.w3.org/2000/svg">
<path fill-rule="evenodd" clip-rule="evenodd" d="M9.62635 0.744141C10.124 0.744141 10.6185 1.04363 10.7893 1.5757L10.8377 1.73245L10.888 1.91087L10.939 2.11222L10.9881 2.3327L11.0346 2.57229L11.0562 2.69845L11.0951 2.96417C11.2417 4.10477 11.1952 5.65956 10.3802 7.23664L10.2788 7.42589C9.42372 8.96475 9.48553 10.5138 9.6786 11.5199L9.72575 11.7423L9.74997 11.8456L9.79903 12.0367L9.8481 12.2037C10.0227 12.7708 9.64547 13.4284 9.00252 13.4845L8.91331 13.4883H1.53382C1.0368 13.4883 0.541688 13.1888 0.370917 12.6567L0.323126 12.5L0.272149 12.3216L0.221173 12.1202L0.172108 11.8997L0.125592 11.6601C0.110299 11.5773 0.0962803 11.4917 0.0835362 11.4033L0.0484897 11.1293L0.021727 10.84C-0.0591983 9.75425 0.0631455 8.38362 0.780003 6.99578L0.881319 6.80653C1.73645 5.26831 1.674 3.71862 1.48157 2.71311L1.43505 2.49073L1.4102 2.3875L1.36114 2.19634L1.31207 2.02939C1.13748 1.46227 1.5147 0.804675 2.15764 0.748601L2.24749 0.744141H9.62635ZM5.58008 7.11621H3.66846C3.49946 7.11621 3.33739 7.18335 3.21789 7.30284C3.09839 7.42234 3.03126 7.58442 3.03126 7.75342C3.03126 7.92242 3.09839 8.08449 3.21789 8.20399C3.33739 8.32349 3.49946 8.39062 3.66846 8.39062H5.58008C5.74908 8.39062 5.91116 8.32349 6.03066 8.20399C6.15016 8.08449 6.21729 7.92242 6.21729 7.75342C6.21729 7.58442 6.15016 7.42234 6.03066 7.30284C5.91116 7.18335 5.74908 7.11621 5.58008 7.11621ZM8.12891 4.56738H4.30567C4.14326 4.56756 3.98705 4.62975 3.86895 4.74124C3.75085 4.85274 3.67978 5.00511 3.67026 5.16725C3.66075 5.32938 3.7135 5.48903 3.81774 5.61357C3.92198 5.73811 4.06984 5.81815 4.23112 5.83734L4.30567 5.8418H8.12891C8.29132 5.84162 8.44754 5.77943 8.56563 5.66794C8.68373 5.55644 8.7548 5.40407 8.76432 5.24193C8.77383 5.0798 8.72109 4.92015 8.61684 4.79561C8.5126 4.67107 8.36474 4.59103 8.20347 4.57184L8.12891 4.56738Z" fill="#FF3E68"/>
</svg>
