<svg width="22" height="22" viewBox="0 0 22 22" fill="none" xmlns="http://www.w3.org/2000/svg">
<path d="M19.4083 11.3619C19.4083 10.222 19.1838 9.09335 18.7476 8.04027C18.3114 6.9872 17.6721 6.03035 16.8661 5.22436C16.0601 4.41838 15.1032 3.77903 14.0502 3.34283C12.9971 2.90664 11.8684 2.68213 10.7286 2.68213V4.41808C12.1019 4.41804 13.4443 4.82523 14.5862 5.58813C15.7281 6.35104 16.6181 7.43541 17.1438 8.70413C17.4928 9.54673 17.6724 10.4498 17.6724 11.3619H19.4083ZM2.04883 9.62592V5.28605C2.04883 5.05585 2.14028 4.83508 2.30305 4.6723C2.46583 4.50952 2.6866 4.41808 2.9168 4.41808H7.25667C7.48687 4.41808 7.70764 4.50952 7.87042 4.6723C8.0332 4.83508 8.12464 5.05585 8.12464 5.28605V8.75794C8.12464 8.98814 8.0332 9.20892 7.87042 9.37169C7.70764 9.53447 7.48687 9.62592 7.25667 9.62592H5.52072C5.52072 11.4675 6.2523 13.2337 7.55451 14.5359C8.85672 15.8381 10.6229 16.5697 12.4645 16.5697V14.8338C12.4645 14.6036 12.556 14.3828 12.7187 14.22C12.8815 14.0572 13.1023 13.9658 13.3325 13.9658H16.8044C17.0346 13.9658 17.2554 14.0572 17.4181 14.22C17.5809 14.3828 17.6724 14.6036 17.6724 14.8338V19.1736C17.6724 19.4038 17.5809 19.6246 17.4181 19.7874C17.2554 19.9502 17.0346 20.0416 16.8044 20.0416H12.4645C6.71245 20.0416 2.04883 15.378 2.04883 9.62592Z" fill="#494A54"/>
<path d="M15.5397 9.36903C15.8015 10.0008 15.9363 10.678 15.9364 11.3619H14.374C14.374 10.3951 13.9899 9.46781 13.3063 8.78414C12.6226 8.10048 11.6954 7.71641 10.7285 7.71641V6.15405C11.7585 6.15411 12.7653 6.45958 13.6217 7.03184C14.4781 7.60409 15.1456 8.41744 15.5397 9.36903Z" fill="#494A54"/>
</svg>
