<svg width="18" height="18" viewBox="0 0 18 18" fill="none" xmlns="http://www.w3.org/2000/svg">
<g clip-path="url(#clip0_312_1039)">
<path d="M17 9.5C17 8.38376 16.7801 7.27846 16.353 6.24719C15.9258 5.21592 15.2997 4.27889 14.5104 3.48959C13.7211 2.70029 12.7841 2.07419 11.7528 1.64702C10.7215 1.21986 9.61624 1 8.5 1V2.7C9.84486 2.69997 11.1595 3.09872 12.2778 3.84583C13.396 4.59294 14.2676 5.65485 14.7824 6.8973C15.1242 7.72245 15.3001 8.60686 15.3 9.5H17ZM0 7.8V3.55C0 3.32457 0.0895533 3.10837 0.248959 2.94896C0.408365 2.78955 0.624566 2.7 0.85 2.7H5.1C5.32543 2.7 5.54163 2.78955 5.70104 2.94896C5.86045 3.10837 5.95 3.32457 5.95 3.55V6.95C5.95 7.17543 5.86045 7.39163 5.70104 7.55104C5.54163 7.71045 5.32543 7.8 5.1 7.8H3.4C3.4 9.60347 4.11643 11.3331 5.39167 12.6083C6.66692 13.8836 8.39653 14.6 10.2 14.6V12.9C10.2 12.6746 10.2896 12.4584 10.449 12.299C10.6084 12.1396 10.8246 12.05 11.05 12.05H14.45C14.6754 12.05 14.8916 12.1396 15.051 12.299C15.2104 12.4584 15.3 12.6746 15.3 12.9V17.15C15.3 17.3754 15.2104 17.5916 15.051 17.751C14.8916 17.9104 14.6754 18 14.45 18H10.2C4.56705 18 0 13.433 0 7.8Z" fill="#494A54"/>
<path d="M13.2135 7.5483C13.4699 8.16702 13.6019 8.83017 13.602 9.4999H12.072C12.072 8.55308 11.6958 7.64504 11.0263 6.97553C10.3568 6.30603 9.44878 5.9299 8.50195 5.9299V4.3999C9.51061 4.39996 10.4966 4.6991 11.3352 5.25951C12.1739 5.81992 12.8275 6.61642 13.2135 7.5483Z" fill="#494A54"/>
</g>
<defs>
<clipPath id="clip0_312_1039">
<rect width="17" height="17" fill="white" transform="translate(0.228516 0.862061)"/>
</clipPath>
</defs>
</svg>
