<svg width="26" height="27" viewBox="0 0 26 27" fill="none" xmlns="http://www.w3.org/2000/svg">
<path d="M17.4 19.8V22H2V19.8C2 19.8 2 15.4 9.7 15.4C17.4 15.4 17.4 19.8 17.4 19.8ZM13.55 9.35004C13.55 8.58858 13.3242 7.84422 12.9012 7.2111C12.4781 6.57797 11.8768 6.0845 11.1733 5.7931C10.4698 5.50171 9.69573 5.42546 8.9489 5.57402C8.20208 5.72257 7.51607 6.08925 6.97764 6.62768C6.43921 7.16611 6.07253 7.85212 5.92398 8.59894C5.77542 9.34577 5.85167 10.1199 6.14306 10.8234C6.43446 11.5269 6.92793 12.1282 7.56105 12.5512C8.19418 12.9742 8.93854 13.2 9.7 13.2C10.7211 13.2 11.7003 12.7944 12.4224 12.0724C13.1444 11.3504 13.55 10.3711 13.55 9.35004ZM17.334 15.4C18.0102 15.9234 18.5635 16.5885 18.955 17.3487C19.3465 18.1089 19.5667 18.9456 19.6 19.8V22H24V19.8C24 19.8 24 15.807 17.334 15.4ZM16.3 5.50004C15.543 5.49652 14.8027 5.72282 14.177 6.14904C14.8452 7.08265 15.2045 8.20195 15.2045 9.35004C15.2045 10.4981 14.8452 11.6174 14.177 12.551C14.8027 12.9773 15.543 13.2036 16.3 13.2C17.3211 13.2 18.3003 12.7944 19.0224 12.0724C19.7444 11.3504 20.15 10.3711 20.15 9.35004C20.15 8.32896 19.7444 7.34969 19.0224 6.62768C18.3003 5.90566 17.3211 5.50004 16.3 5.50004Z" fill="#999999"/>
</svg>
