<svg width="18" height="19" viewBox="0 0 18 19" fill="none" xmlns="http://www.w3.org/2000/svg">
<path d="M3.64656 13.2577C5.18657 12.188 7.01703 11.6152 8.89208 11.6162C10.7671 11.6152 12.5955 12.188 14.1355 13.2577C15.6755 14.3273 16.8514 15.8426 17.5051 17.6C17.7358 18.2214 17.2411 18.8367 16.576 18.8367H1.20397C0.540949 18.8367 0.0442041 18.2214 0.276988 17.6C0.93071 15.8426 2.10654 14.3273 3.64656 13.2577Z" fill="#999999"/>
<path d="M12.1356 7.97491C12.9972 7.1133 13.4812 5.94471 13.4812 4.7262C13.4812 3.5077 12.9972 2.33911 12.1356 1.4775C11.274 0.615884 10.1054 0.131836 8.88688 0.131836C7.66838 0.131836 6.49978 0.615884 5.63817 1.4775C4.77656 2.33911 4.29251 3.5077 4.29251 4.7262C4.29251 5.94471 4.77656 7.1133 5.63817 7.97491C6.49978 8.83652 7.66838 9.32057 8.88688 9.32057C10.1054 9.32057 11.274 8.83652 12.1356 7.97491Z" fill="#999999"/>
</svg>
