<svg width="17" height="16" viewBox="0 0 17 16" fill="none" xmlns="http://www.w3.org/2000/svg">
<path d="M9.71429 0.866699C7.78199 0.866699 5.92884 1.6343 4.56251 3.00064C3.19617 4.36697 2.42857 6.22012 2.42857 8.15241H0L3.14905 11.3015L3.20571 11.4148L6.47619 8.15241H4.04762C4.04762 5.01956 6.58143 2.48575 9.71429 2.48575C12.8471 2.48575 15.381 5.01956 15.381 8.15241C15.381 11.2853 12.8471 13.8191 9.71429 13.8191C8.15191 13.8191 6.73524 13.1796 5.71524 12.1515L4.56571 13.301C5.24028 13.9795 6.04255 14.5177 6.92623 14.8845C7.80992 15.2513 8.7575 15.4395 9.71429 15.4381C11.6466 15.4381 13.4997 14.6705 14.8661 13.3042C16.2324 11.9379 17 10.0847 17 8.15241C17 6.22012 16.2324 4.36697 14.8661 3.00064C13.4997 1.6343 11.6466 0.866699 9.71429 0.866699ZM8.90476 4.91432V8.96194L12.3452 11.0019L12.9686 9.96575L10.119 8.27384V4.91432H8.90476Z" fill="#666666"/>
</svg>
