<svg width="19" height="18" viewBox="0 0 19 18" fill="none" xmlns="http://www.w3.org/2000/svg">
<path d="M17.7653 15.7958L13.8992 11.9297C14.83 10.6906 15.3325 9.1824 15.3307 7.63266C15.3307 3.67416 12.1102 0.453613 8.1517 0.453613C4.1932 0.453613 0.972656 3.67416 0.972656 7.63266C0.972656 11.5912 4.1932 14.8117 8.1517 14.8117C9.70145 14.8134 11.2097 14.311 12.4488 13.3802L16.3148 17.2462C16.5105 17.4212 16.7658 17.5145 17.0282 17.5072C17.2905 17.4999 17.5402 17.3923 17.7258 17.2067C17.9114 17.0211 18.0189 16.7715 18.0262 16.5091C18.0336 16.2467 17.9402 15.9915 17.7653 15.7958ZM3.02381 7.63266C3.02381 6.61846 3.32456 5.62703 3.88802 4.78376C4.45148 3.94048 5.25234 3.28322 6.18934 2.89511C7.12634 2.50699 8.15739 2.40544 9.1521 2.6033C10.1468 2.80116 11.0605 3.28955 11.7777 4.00669C12.4948 4.72384 12.9832 5.63754 13.1811 6.63226C13.3789 7.62697 13.2774 8.65802 12.8893 9.59502C12.5011 10.532 11.8439 11.3329 11.0006 11.8963C10.1573 12.4598 9.1659 12.7605 8.1517 12.7605C6.7922 12.7589 5.48885 12.2181 4.52754 11.2568C3.56623 10.2955 3.02544 8.99216 3.02381 7.63266Z" fill="#A3A3A3"/>
</svg>
