<svg width="20" height="20" viewBox="0 0 20 20" fill="none" xmlns="http://www.w3.org/2000/svg">
<path d="M17.2405 10.4261L18.6756 11.5112C19.1423 11.8612 19.2707 12.5146 18.979 13.028L17.0888 16.2949C16.7971 16.8083 16.167 17.0183 15.6303 16.785L13.9618 16.0849C13.7285 16.2366 13.4718 16.3883 13.2151 16.5166L12.9934 18.3135C12.9234 18.8968 12.4217 19.3402 11.8383 19.3402H8.06963C7.48624 19.3402 6.98453 18.8968 6.91452 18.3135L6.69283 16.5166C6.43614 16.3883 6.19112 16.2483 5.9461 16.0849L4.27761 16.785C3.74089 17.0183 3.11084 16.8083 2.81914 16.2949L0.928966 13.028C0.637273 12.5146 0.765618 11.8729 1.23233 11.5112L2.66746 10.4261V9.99435C2.66746 9.85434 2.66746 9.70266 2.67913 9.56265L1.244 8.47755C0.777285 8.12751 0.64894 7.47412 0.940634 6.96074L2.83081 3.69377C3.1225 3.18039 3.75256 2.97037 4.28928 3.20373L5.95777 3.90379C6.19112 3.75211 6.44781 3.60043 6.7045 3.47208L6.92619 1.67525C6.98453 1.10353 7.48624 0.660156 8.06963 0.660156H11.8383C12.4217 0.660156 12.9234 1.10353 12.9934 1.68692L13.2151 3.48375C13.4718 3.6121 13.7168 3.75211 13.9618 3.91546L15.6303 3.21539C16.167 2.98204 16.7971 3.19206 17.0888 3.70544L18.979 6.97241C19.2707 7.48579 19.1423 8.12751 18.6756 8.48921L17.2405 9.57432C17.2521 9.71433 17.2521 9.85434 17.2521 10.006C17.2521 10.1577 17.2521 10.286 17.2405 10.4261ZM13.4601 9.99435C13.4601 8.05751 11.8966 6.49403 9.9598 6.49403C8.02296 6.49403 6.45948 8.05751 6.45948 9.99435C6.45948 11.9312 8.02296 13.4947 9.9598 13.4947C11.8966 13.4947 13.4601 11.9312 13.4601 9.99435Z" fill="#656565"/>
</svg>
