<svg width="16" height="20" viewBox="0 0 16 20" fill="none" xmlns="http://www.w3.org/2000/svg">
<path d="M2.34826 8.52613C2.26099 8.52613 2.1773 8.5608 2.11559 8.62251C2.05388 8.68422 2.01921 8.76791 2.01921 8.85518V17.4104C2.01921 17.5921 2.16662 17.7395 2.34826 17.7395H13.5359C13.6232 17.7395 13.7069 17.7048 13.7686 17.6431C13.8303 17.5814 13.8649 17.4977 13.8649 17.4104V8.85518C13.8649 8.76791 13.8303 8.68422 13.7686 8.62251C13.7069 8.5608 13.6232 8.52613 13.5359 8.52613H12.2197C11.9579 8.52613 11.7068 8.42213 11.5217 8.23701C11.3366 8.05188 11.2326 7.8008 11.2326 7.53899C11.2326 7.27718 11.3366 7.0261 11.5217 6.84097C11.7068 6.65585 11.9579 6.55184 12.2197 6.55184H13.5359C14.8073 6.55184 15.8392 7.58374 15.8392 8.85518V17.4104C15.8392 18.0213 15.5966 18.6072 15.1646 19.0391C14.7326 19.4711 14.1468 19.7138 13.5359 19.7138H2.34826C1.73738 19.7138 1.15151 19.4711 0.719554 19.0391C0.287594 18.6072 0.0449219 18.0213 0.0449219 17.4104V8.85518C0.0449219 7.58374 1.07682 6.55184 2.34826 6.55184H3.66445C3.92626 6.55184 4.17734 6.65585 4.36247 6.84097C4.54759 7.0261 4.6516 7.27718 4.6516 7.53899C4.6516 7.8008 4.54759 8.05188 4.36247 8.23701C4.17734 8.42213 3.92626 8.52613 3.66445 8.52613H2.34826ZM7.70911 0.203848C7.73968 0.173205 7.77599 0.148893 7.81596 0.132305C7.85594 0.115716 7.8988 0.107178 7.94208 0.107178C7.98536 0.107178 8.02821 0.115716 8.06819 0.132305C8.10817 0.148893 8.14448 0.173205 8.17504 0.203848L11.9867 4.01554C12.0329 4.06156 12.0643 4.12025 12.0771 4.18415C12.0898 4.24806 12.0833 4.31431 12.0583 4.37451C12.0334 4.43471 11.9911 4.48614 11.9369 4.52229C11.8827 4.55844 11.8189 4.57767 11.7538 4.57756H8.92922V12.1457C8.92922 12.4075 8.82522 12.6586 8.64009 12.8437C8.45497 13.0288 8.20389 13.1328 7.94208 13.1328C7.68027 13.1328 7.42919 13.0288 7.24406 12.8437C7.05894 12.6586 6.95493 12.4075 6.95493 12.1457V4.57756H4.13038C4.06522 4.57767 4.00149 4.55844 3.94727 4.52229C3.89305 4.48614 3.85078 4.43471 3.82583 4.37451C3.80087 4.31431 3.79436 4.24806 3.8071 4.18415C3.81985 4.12025 3.85128 4.06156 3.89742 4.01554L7.70911 0.203848Z" fill="#191919"/>
</svg>
