<svg width="27" height="27" viewBox="0 0 27 27" fill="none" xmlns="http://www.w3.org/2000/svg">
<path fill-rule="evenodd" clip-rule="evenodd" d="M19.949 3.39343C20.7072 3.39343 21.4605 3.8497 21.7207 4.66031L21.7944 4.89912L21.8711 5.17094L21.9488 5.47771L22.0235 5.8136L22.0944 6.17862L22.1274 6.37083L22.1866 6.77565C22.4099 8.51336 22.339 10.8821 21.0974 13.2848L20.9431 13.5731C19.6403 15.9175 19.7344 18.2775 20.0286 19.8104L20.1004 20.1492L20.1373 20.3065L20.2121 20.5977L20.2868 20.8521C20.5528 21.7161 19.9781 22.7179 18.9986 22.8033L18.8627 22.8092H7.61998C6.86277 22.8092 6.10847 22.3529 5.8483 21.5423L5.77549 21.3035L5.69782 21.0317L5.62016 20.7249L5.54541 20.389L5.47454 20.024C5.45124 19.8978 5.42989 19.7674 5.41047 19.6327L5.35708 19.2153L5.3163 18.7746C5.19301 17.1204 5.37941 15.0322 6.47154 12.9178L6.6259 12.6295C7.92869 10.286 7.83355 7.92506 7.54038 6.39316L7.46951 6.05436L7.43165 5.89709L7.3569 5.60585L7.28215 5.35151C7.01615 4.48751 7.59086 3.48566 8.57038 3.40023L8.70726 3.39343H19.949ZM13.7845 13.1013H10.8721C10.6146 13.1013 10.3677 13.2036 10.1857 13.3856C10.0036 13.5677 9.90133 13.8146 9.90133 14.0721C9.90133 14.3296 10.0036 14.5765 10.1857 14.7585C10.3677 14.9406 10.6146 15.0429 10.8721 15.0429H13.7845C14.0419 15.0429 14.2889 14.9406 14.4709 14.7585C14.653 14.5765 14.7553 14.3296 14.7553 14.0721C14.7553 13.8146 14.653 13.5677 14.4709 13.3856C14.2889 13.2036 14.0419 13.1013 13.7845 13.1013ZM17.6676 9.21815H11.8429C11.5955 9.21843 11.3575 9.31317 11.1776 9.48303C10.9976 9.65289 10.8894 9.88504 10.8749 10.132C10.8604 10.3791 10.9407 10.6223 11.0995 10.812C11.2583 11.0018 11.4836 11.1237 11.7293 11.1529L11.8429 11.1597H17.6676C17.9151 11.1594 18.153 11.0647 18.333 10.8948C18.5129 10.725 18.6212 10.4928 18.6357 10.2458C18.6502 9.99882 18.5698 9.7556 18.411 9.56586C18.2522 9.37611 18.0269 9.25417 17.7812 9.22495L17.6676 9.21815Z" fill="#999999"/>
</svg>
