<svg width="16" height="12" viewBox="0 0 16 12" fill="none" xmlns="http://www.w3.org/2000/svg">
<path d="M15.1421 1.07012C15.0423 0.969457 14.9235 0.88956 14.7926 0.835037C14.6618 0.780513 14.5214 0.752441 14.3796 0.752441C14.2378 0.752441 14.0975 0.780513 13.9666 0.835037C13.8357 0.88956 13.7169 0.969457 13.6171 1.07012L5.61607 9.0819L2.25456 5.70965C2.1509 5.60951 2.02853 5.53078 1.89444 5.47793C1.76035 5.42509 1.61716 5.39918 1.47306 5.40167C1.32895 5.40416 1.18675 5.43501 1.05456 5.49246C0.922383 5.54991 0.802811 5.63284 0.702676 5.7365C0.602541 5.84016 0.523804 5.96253 0.470961 6.09662C0.418118 6.23071 0.392202 6.37389 0.394695 6.518C0.397189 6.6621 0.428041 6.80431 0.485491 6.93649C0.542942 7.06867 0.625864 7.18824 0.729525 7.28838L4.85355 11.4124C4.95339 11.5131 5.07217 11.593 5.20305 11.6475C5.33392 11.702 5.47429 11.7301 5.61607 11.7301C5.75784 11.7301 5.89822 11.702 6.02909 11.6475C6.15996 11.593 6.27874 11.5131 6.37858 11.4124L15.1421 2.64885C15.2512 2.54828 15.3382 2.42622 15.3977 2.29036C15.4572 2.15451 15.4879 2.0078 15.4879 1.85948C15.4879 1.71117 15.4572 1.56446 15.3977 1.4286C15.3382 1.29275 15.2512 1.17069 15.1421 1.07012Z" fill="white"/>
</svg>
