<svg width="23" height="24" viewBox="0 0 23 24" fill="none" xmlns="http://www.w3.org/2000/svg">
<path d="M15.8779 6.35365C15.2194 5.6017 14.8565 4.6362 14.8566 3.63672H11.8796V15.5835C11.8571 16.2301 11.5843 16.8428 11.1187 17.2922C10.6532 17.7415 10.0313 17.9925 9.38424 17.9921C8.01614 17.9921 6.87927 16.8745 6.87927 15.4871C6.87927 13.83 8.4786 12.5872 10.1261 13.0978V10.0533C6.8022 9.6101 3.89258 12.1921 3.89258 15.4871C3.89258 18.6954 6.5517 20.9788 9.3746 20.9788C12.3998 20.9788 14.8566 18.522 14.8566 15.4871V9.42705C16.0638 10.294 17.5132 10.7592 18.9995 10.7566V7.77955C18.9995 7.77955 17.1882 7.86626 15.8779 6.35365Z" fill="#616161"/>
</svg>
