<svg width="28" height="29" viewBox="0 0 28 29" fill="none" xmlns="http://www.w3.org/2000/svg">
<path d="M20.1294 6.35681C19.2186 5.31668 18.7166 3.98116 18.7167 2.59863H14.5987V19.1239C14.5676 20.0184 14.1903 20.8659 13.5463 21.4875C12.9024 22.109 12.0421 22.4562 11.1471 22.4556C9.25468 22.4556 7.68211 20.9097 7.68211 18.9907C7.68211 16.6984 9.89436 14.9793 12.1733 15.6856V11.4743C7.57549 10.8613 3.55078 14.4329 3.55078 18.9907C3.55078 23.4285 7.22899 26.587 11.1338 26.587C15.3184 26.587 18.7167 23.1886 18.7167 18.9907V10.6081C20.3866 11.8073 22.3914 12.4507 24.4473 12.4472V8.32918C24.4473 8.32918 21.9418 8.44912 20.1294 6.35681Z" fill="black"/>
</svg>
