<svg width="16" height="20" viewBox="0 0 16 20" fill="none" xmlns="http://www.w3.org/2000/svg">
<path d="M2.34631 8.52613C2.25904 8.52613 2.17534 8.5608 2.11363 8.62251C2.05193 8.68422 2.01726 8.76791 2.01726 8.85518V17.4104C2.01726 17.5921 2.16467 17.7395 2.34631 17.7395H13.5339C13.6212 17.7395 13.7049 17.7048 13.7666 17.6431C13.8283 17.5814 13.863 17.4977 13.863 17.4104V8.85518C13.863 8.76791 13.8283 8.68422 13.7666 8.62251C13.7049 8.5608 13.6212 8.52613 13.5339 8.52613H12.2178C11.9559 8.52613 11.7049 8.42213 11.5197 8.23701C11.3346 8.05188 11.2306 7.8008 11.2306 7.53899C11.2306 7.27718 11.3346 7.0261 11.5197 6.84097C11.7049 6.65585 11.9559 6.55184 12.2178 6.55184H13.5339C14.8054 6.55184 15.8373 7.58374 15.8373 8.85518V17.4104C15.8373 18.0213 15.5946 18.6072 15.1626 19.0391C14.7307 19.4711 14.1448 19.7138 13.5339 19.7138H2.34631C1.73542 19.7138 1.14956 19.4711 0.717601 19.0391C0.285641 18.6072 0.0429688 18.0213 0.0429688 17.4104V8.85518C0.0429688 7.58374 1.07486 6.55184 2.34631 6.55184H3.6625C3.92431 6.55184 4.17539 6.65585 4.36052 6.84097C4.54564 7.0261 4.64964 7.27718 4.64964 7.53899C4.64964 7.8008 4.54564 8.05188 4.36052 8.23701C4.17539 8.42213 3.92431 8.52613 3.6625 8.52613H2.34631ZM7.70716 0.203848C7.73772 0.173205 7.77404 0.148893 7.81401 0.132305C7.85399 0.115716 7.89684 0.107178 7.94012 0.107178C7.98341 0.107178 8.02626 0.115716 8.06624 0.132305C8.10621 0.148893 8.14252 0.173205 8.17309 0.203848L11.9848 4.01554C12.0309 4.06156 12.0624 4.12025 12.0751 4.18415C12.0878 4.24806 12.0813 4.31431 12.0564 4.37451C12.0314 4.43471 11.9892 4.48614 11.9349 4.52229C11.8807 4.55844 11.817 4.57767 11.7518 4.57756H8.92727V12.1457C8.92727 12.4075 8.82327 12.6586 8.63814 12.8437C8.45302 13.0288 8.20193 13.1328 7.94012 13.1328C7.67832 13.1328 7.42723 13.0288 7.24211 12.8437C7.05698 12.6586 6.95298 12.4075 6.95298 12.1457V4.57756H4.12843C4.06327 4.57767 3.99953 4.55844 3.94531 4.52229C3.89109 4.48614 3.84883 4.43471 3.82387 4.37451C3.79892 4.31431 3.7924 4.24806 3.80515 4.18415C3.81789 4.12025 3.84933 4.06156 3.89546 4.01554L7.70716 0.203848Z" fill="#191919"/>
</svg>
