<svg width="19" height="25" viewBox="0 0 19 25" fill="none" xmlns="http://www.w3.org/2000/svg">
<path d="M9.8577 0.86377C7.43374 0.866629 5.10988 1.83081 3.39589 3.54481C1.68189 5.2588 0.717709 7.58266 0.714849 10.0066C0.712621 11.9874 1.35959 13.9143 2.55672 15.4923C2.55672 15.4923 2.80607 15.8206 2.8468 15.868L9.8577 24.1365L16.8719 15.8639C16.9085 15.8198 17.1587 15.4923 17.1587 15.4923L17.1595 15.4898C18.3558 13.9123 19.0025 11.9864 19.0005 10.0066C18.9977 7.58266 18.0335 5.2588 16.3195 3.54481C14.6055 1.83081 12.2817 0.866629 9.8577 0.86377ZM10.6889 14.1625H9.02653V12.5001H10.6889V14.1625ZM10.6889 10.8378H9.02653V9.17545H10.6889V10.8378ZM14.0135 14.1625H12.3512V7.51311H7.36419V14.1625H5.70186V7.51311C5.70186 7.07223 5.877 6.64941 6.18874 6.33766C6.50049 6.02592 6.92331 5.85078 7.36419 5.85078H12.3512C12.7921 5.85078 13.2149 6.02592 13.5267 6.33766C13.8384 6.64941 14.0135 7.07223 14.0135 7.51311V14.1625Z" fill="#FF4A72"/>
</svg>
