<svg width="13" height="12" viewBox="0 0 13 12" fill="none" xmlns="http://www.w3.org/2000/svg">
<g clip-path="url(#clip0_664_649)">
<path fill-rule="evenodd" clip-rule="evenodd" d="M6.52616 1.88861H2.76018C2.6492 1.88861 2.54277 1.9327 2.4643 2.01117C2.38582 2.08965 2.34174 2.19608 2.34174 2.30706V9.83902C2.34174 9.95 2.38582 10.0564 2.4643 10.1349C2.54277 10.2134 2.6492 10.2575 2.76018 10.2575H10.2921C10.4031 10.2575 10.5096 10.2134 10.588 10.1349C10.6665 10.0564 10.7106 9.95 10.7106 9.83902V6.07304C10.7106 5.85108 10.7988 5.63822 10.9557 5.48127C11.1126 5.32432 11.3255 5.23615 11.5475 5.23615C11.7694 5.23615 11.9823 5.32432 12.1392 5.48127C12.2962 5.63822 12.3844 5.85108 12.3844 6.07304V9.83902C12.3844 10.3939 12.1639 10.9261 11.7716 11.3184C11.3792 11.7108 10.847 11.9312 10.2921 11.9312H2.76018C2.20529 11.9312 1.67313 11.7108 1.28076 11.3184C0.888398 10.9261 0.667969 10.3939 0.667969 9.83902L0.667969 2.30706C0.667969 1.75217 0.888398 1.22 1.28076 0.827638C1.67313 0.435273 2.20529 0.214844 2.76018 0.214844L6.52616 0.214844C6.74812 0.214844 6.96098 0.303015 7.11793 0.459962C7.27487 0.616908 7.36305 0.829773 7.36305 1.05173C7.36305 1.27368 7.27487 1.48655 7.11793 1.6435C6.96098 1.80044 6.74812 1.88861 6.52616 1.88861ZM8.65017 0.473441C8.6818 0.396919 8.73543 0.331502 8.80425 0.285469C8.87308 0.239436 8.95401 0.214857 9.03681 0.214844H11.9659C12.0769 0.214844 12.1833 0.25893 12.2618 0.337403C12.3403 0.415876 12.3844 0.522308 12.3844 0.633286V3.56238C12.3845 3.64525 12.36 3.7263 12.3141 3.79525C12.2681 3.8642 12.2027 3.91795 12.1261 3.94968C12.0496 3.98141 11.9653 3.9897 11.8841 3.97349C11.8028 3.95728 11.7282 3.91731 11.6697 3.85864L10.7976 2.98493L7.11784 6.66471C6.96 6.81716 6.7486 6.90151 6.52917 6.89961C6.30974 6.8977 6.09984 6.80968 5.94468 6.65452C5.78951 6.49935 5.7015 6.28945 5.69959 6.07002C5.69768 5.8506 5.78204 5.6392 5.93448 5.48136L9.61343 1.80158L8.74056 0.929543C8.68207 0.870979 8.64227 0.796388 8.62618 0.715202C8.61009 0.634016 8.61844 0.549882 8.65017 0.473441Z" fill="#AFAFAF"/>
</g>
<defs>
<clipPath id="clip0_664_649">
<rect width="11.7164" height="11.7164" fill="white" transform="translate(0.667969 0.214844)"/>
</clipPath>
</defs>
</svg>
