<svg width="16" height="17" viewBox="0 0 16 17" fill="none" xmlns="http://www.w3.org/2000/svg">
<path d="M7.38578 2.14237V6.38099C7.38578 6.7557 7.23692 7.11507 6.97196 7.38004C6.70699 7.645 6.34762 7.79386 5.97291 7.79386H1.73428C1.35957 7.79386 1.0002 7.645 0.735232 7.38004C0.470267 7.11507 0.321411 6.7557 0.321411 6.38099V2.14237C0.321411 1.76765 0.470267 1.40828 0.735232 1.14331C1.0002 0.878348 1.35957 0.729492 1.73428 0.729492H5.97291C6.34762 0.729492 6.70699 0.878348 6.97196 1.14331C7.23692 1.40828 7.38578 1.76765 7.38578 2.14237ZM5.97291 9.20673H1.73428C1.35957 9.20673 1.0002 9.35559 0.735232 9.62055C0.470267 9.88552 0.321411 10.2449 0.321411 10.6196V14.8582C0.321411 15.2329 0.470267 15.5923 0.735232 15.8573C1.0002 16.1222 1.35957 16.2711 1.73428 16.2711H5.97291C6.34762 16.2711 6.70699 16.1222 6.97196 15.8573C7.23692 15.5923 7.38578 15.2329 7.38578 14.8582V10.6196C7.38578 10.2449 7.23692 9.88552 6.97196 9.62055C6.70699 9.35559 6.34762 9.20673 5.97291 9.20673ZM14.4501 0.729492H10.2115C9.83681 0.729492 9.47744 0.878348 9.21247 1.14331C8.94751 1.40828 8.79865 1.76765 8.79865 2.14237V6.38099C8.79865 6.7557 8.94751 7.11507 9.21247 7.38004C9.47744 7.645 9.83681 7.79386 10.2115 7.79386H14.4501C14.8249 7.79386 15.1842 7.645 15.4492 7.38004C15.7142 7.11507 15.863 6.7557 15.863 6.38099V2.14237C15.863 1.76765 15.7142 1.40828 15.4492 1.14331C15.1842 0.878348 14.8249 0.729492 14.4501 0.729492ZM9.50509 13.4454C9.69245 13.4454 9.87213 13.3709 10.0046 13.2384C10.1371 13.106 10.2115 12.9263 10.2115 12.7389V9.91317C10.2115 9.72581 10.1371 9.54613 10.0046 9.41364C9.87213 9.28116 9.69245 9.20673 9.50509 9.20673C9.31773 9.20673 9.13805 9.28116 9.00556 9.41364C8.87308 9.54613 8.79865 9.72581 8.79865 9.91317V12.7389C8.79865 12.9263 8.87308 13.106 9.00556 13.2384C9.13805 13.3709 9.31773 13.4454 9.50509 13.4454ZM15.1566 10.6196H13.0373V9.91317C13.0373 9.72581 12.9628 9.54613 12.8304 9.41364C12.6979 9.28116 12.5182 9.20673 12.3308 9.20673C12.1435 9.20673 11.9638 9.28116 11.8313 9.41364C11.6988 9.54613 11.6244 9.72581 11.6244 9.91317V14.8582H9.50509C9.31773 14.8582 9.13805 14.9327 9.00556 15.0651C8.87308 15.1976 8.79865 15.3773 8.79865 15.5647C8.79865 15.752 8.87308 15.9317 9.00556 16.0642C9.13805 16.1967 9.31773 16.2711 9.50509 16.2711H12.3308C12.5182 16.2711 12.6979 16.1967 12.8304 16.0642C12.9628 15.9317 13.0373 15.752 13.0373 15.5647V12.0325H15.1566C15.3439 12.0325 15.5236 11.9581 15.6561 11.8256C15.7886 11.6931 15.863 11.5134 15.863 11.326C15.863 11.1387 15.7886 10.959 15.6561 10.8265C15.5236 10.694 15.3439 10.6196 15.1566 10.6196ZM15.1566 13.4454C14.9692 13.4454 14.7895 13.5198 14.6571 13.6523C14.5246 13.7847 14.4501 13.9644 14.4501 14.1518V15.5647C14.4501 15.752 14.5246 15.9317 14.6571 16.0642C14.7895 16.1967 14.9692 16.2711 15.1566 16.2711C15.3439 16.2711 15.5236 16.1967 15.6561 16.0642C15.7886 15.9317 15.863 15.752 15.863 15.5647V14.1518C15.863 13.9644 15.7886 13.7847 15.6561 13.6523C15.5236 13.5198 15.3439 13.4454 15.1566 13.4454Z" fill="white"/>
</svg>
