<svg width="23" height="24" viewBox="0 0 23 24" fill="none" xmlns="http://www.w3.org/2000/svg">
    <path d="M21.0827 11.8451C21.0827 10.5866 20.8348 9.34037 20.3532 8.17767C19.8716 7.01497 19.1657 5.95851 18.2758 5.06861C17.3859 4.17872 16.3294 3.47281 15.1667 2.99121C14.004 2.5096 12.7578 2.26172 11.4993 2.26172V4.17839C13.0156 4.17835 14.4978 4.62792 15.7586 5.47025C17.0194 6.31258 18.002 7.50984 18.5824 8.91063C18.9678 9.84095 19.1661 10.8381 19.166 11.8451H21.0827ZM1.91602 9.92839V5.13672C1.91602 4.88255 2.01698 4.6388 2.1967 4.45907C2.37643 4.27935 2.62018 4.17839 2.87435 4.17839H7.66602C7.92018 4.17839 8.16394 4.27935 8.34366 4.45907C8.52338 4.6388 8.62435 4.88255 8.62435 5.13672V8.97005C8.62435 9.22422 8.52338 9.46797 8.34366 9.6477C8.16394 9.82742 7.92018 9.92839 7.66602 9.92839H5.74935C5.74935 11.9617 6.55708 13.9118 7.99486 15.3495C9.43264 16.7873 11.3827 17.5951 13.416 17.5951V15.6784C13.416 15.4242 13.517 15.1805 13.6967 15.0007C13.8764 14.821 14.1202 14.7201 14.3743 14.7201H18.2077C18.4618 14.7201 18.7056 14.821 18.8853 15.0007C19.065 15.1805 19.166 15.4242 19.166 15.6784V20.4701C19.166 20.7242 19.065 20.968 18.8853 21.1477C18.7056 21.3274 18.4618 21.4284 18.2077 21.4284H13.416C7.06514 21.4284 1.91602 16.2793 1.91602 9.92839Z" fill="#FF3E68"/>
    <path d="M16.812 9.64439C17.1011 10.342 17.2499 11.0896 17.25 11.8447H15.525C15.525 10.7772 15.1009 9.75346 14.3461 8.99862C13.5913 8.24379 12.5675 7.81973 11.5 7.81973V6.09473C12.6372 6.09479 13.7489 6.43206 14.6944 7.06389C15.6399 7.69572 16.3769 8.59374 16.812 9.64439Z" fill="#FF3E68"/>
</svg>
