<svg width="19" height="19" viewBox="0 0 19 19" fill="none" xmlns="http://www.w3.org/2000/svg">
    <path fill-rule="evenodd" clip-rule="evenodd" d="M13.6263 3.74414C14.124 3.74414 14.6185 4.04363 14.7893 4.5757L14.8377 4.73245L14.888 4.91087L14.939 5.11222L14.9881 5.3327L15.0346 5.57229L15.0562 5.69845L15.0951 5.96417C15.2417 7.10477 15.1952 8.65956 14.3802 10.2366L14.2788 10.4259C13.4237 11.9647 13.4855 13.5138 13.6786 14.5199L13.7258 14.7423L13.75 14.8456L13.799 15.0367L13.8481 15.2037C14.0227 15.7708 13.6455 16.4284 13.0025 16.4845L12.9133 16.4883H5.53382C5.0368 16.4883 4.54169 16.1888 4.37092 15.6567L4.32313 15.5L4.27215 15.3216L4.22117 15.1202L4.17211 14.8997L4.12559 14.6601C4.1103 14.5773 4.09628 14.4917 4.08354 14.4033L4.04849 14.1293L4.02173 13.84C3.9408 12.7542 4.06315 11.3836 4.78 9.99578L4.88132 9.80653C5.73645 8.26831 5.674 6.71862 5.48157 5.71311L5.43505 5.49073L5.4102 5.3875L5.36114 5.19634L5.31207 5.02939C5.13748 4.46227 5.5147 3.80468 6.15764 3.7486L6.24749 3.74414H13.6263ZM9.58008 10.1162H7.66846C7.49946 10.1162 7.33739 10.1833 7.21789 10.3028C7.09839 10.4223 7.03126 10.5844 7.03126 10.7534C7.03126 10.9224 7.09839 11.0845 7.21789 11.204C7.33739 11.3235 7.49946 11.3906 7.66846 11.3906H9.58008C9.74908 11.3906 9.91116 11.3235 10.0307 11.204C10.1502 11.0845 10.2173 10.9224 10.2173 10.7534C10.2173 10.5844 10.1502 10.4223 10.0307 10.3028C9.91116 10.1833 9.74908 10.1162 9.58008 10.1162ZM12.1289 7.56738H8.30567C8.14326 7.56756 7.98705 7.62975 7.86895 7.74124C7.75085 7.85274 7.67978 8.00511 7.67026 8.16725C7.66075 8.32938 7.7135 8.48903 7.81774 8.61357C7.92198 8.73811 8.06984 8.81815 8.23112 8.83734L8.30567 8.8418H12.1289C12.2913 8.84162 12.4475 8.77943 12.5656 8.66794C12.6837 8.55644 12.7548 8.40407 12.7643 8.24193C12.7738 8.0798 12.7211 7.92015 12.6168 7.79561C12.5126 7.67107 12.3647 7.59103 12.2035 7.57184L12.1289 7.56738Z" fill="#FF3E68"/>
</svg>
